<svg width="330.62" height="330.57" version="1.1" viewBox="0 0 330.62 330.57" xml:space="preserve" xmlns="http://www.w3.org/2000/svg">
<defs>
<linearGradient id="SVGID_6_" x1="176.19" x2="276.45" y1="291.53" y2="291.53" gradientUnits="userSpaceOnUse"><stop stop-color="#FEF0EB" offset="0"/><stop stop-color="#D4E8F2" offset=".4988"/><stop stop-color="#ADE0F8" offset="1"/></linearGradient>
<linearGradient id="SVGID_7_" x1="383.01" x2="294.3" y1="235.47" y2="353" gradientUnits="userSpaceOnUse"><stop stop-color="#488BCA" offset="0"/><stop stop-color="#AEDAF4" offset="1"/></linearGradient>
<linearGradient id="SVGID_8_" x1="289.04" x2="172.27" y1="153.05" y2="241.76" gradientUnits="userSpaceOnUse"><stop stop-color="#488BCA" offset="0"/><stop stop-color="#AEDAF4" offset="1"/></linearGradient>
<linearGradient id="SVGID_9_" x1="239.08" x2="411.33" y1="296.07" y2="113.05" gradientUnits="userSpaceOnUse"><stop stop-color="#488BCA" offset="0"/><stop stop-color="#AEDAF4" offset="1"/></linearGradient>
<linearGradient id="SVGID_10_" x1="175.22" x2="251.62" y1="356.16" y2="279.76" gradientUnits="userSpaceOnUse"><stop stop-color="#488BCA" offset="0"/><stop stop-color="#AEDAF4" offset="1"/></linearGradient>
<linearGradient id="SVGID_11_" x1="94.977" x2="412.48" y1="437.15" y2="119.64" gradientUnits="userSpaceOnUse"><stop stop-color="#2B5876" offset="0"/><stop stop-color="#4E4376" offset="1"/></linearGradient>
</defs>
<style type="text/css">.st5{fill:url(#SVGID_6_);}.st6{fill:url(#SVGID_7_);}.st7{fill:url(#SVGID_8_);}.st8{fill:url(#SVGID_9_);}.st9{fill:url(#SVGID_10_);}.st10{fill:url(#SVGID_11_);}</style>
<g transform="translate(-91.074 -109.75)">
<path class="st5" d="m185.4 294.6c0.6-2.1 1.2-4.2 1.8-6.2-0.6 2.1-1.2 4.2-1.8 6.2z"/>
<path class="st6" d="m257.9 398.4c21.2-3.7 41.4-13.7 57.7-30 23.6-23.6 34-55.5 31.1-86.3-21.1 20.8-44.9 37.2-70.3 49.1 3.2 23.4-3 47.8-18.5 67.2z"/>
<path class="st7" d="m163 215.7c-16.3 16.3-26.3 36.6-30 57.7 19.4-15.5 43.8-21.7 67.2-18.6 11.9-25.4 28.3-49.2 49.1-70.3-30.8-2.8-62.7 7.6-86.3 31.2z"/>
<path class="st8" d="m414.9 116.5c-4.3-4.3-10.1-6.1-15.7-5.6-0.3 0-0.6 0.1-0.9 0.1-22.4 2.8-44.6 8.6-65.8 17.4-1.5 0.6-3 1.3-4.5 1.9-28.2 12.3-54.5 30-77.6 53.1l-1.2 1.2c-20.8 21.1-37.2 44.9-49.1 70.3 18.7 2.5 36.7 10.9 51.1 25.2 14.3 14.3 22.8 32.4 25.2 51.1 25.4-11.9 49.2-28.3 70.3-49.1l1.2-1.2c23.1-23.1 40.7-49.4 53.1-77.6 0.7-1.5 1.3-3 1.9-4.5 8.8-21.2 14.6-43.3 17.4-65.7 0.1-0.3 0.1-0.6 0.1-0.9 0.7-5.7-1.2-11.5-5.5-15.7zm-66.8 92c-13.9 0-25.2-11.3-25.2-25.2s11.3-25.2 25.2-25.2 25.2 11.3 25.2 25.2-11.3 25.2-25.2 25.2z"/>
<path class="st9" d="m200.2 254.9c-4.2 8.9-7.8 18-10.9 27.3-0.7 2.1-1.3 4.1-2 6.2-0.6 2.1-1.2 4.1-1.8 6.2-2.3 8.3-4.2 16.8-5.7 25.3-0.4 2.1-0.7 4.2-1 6.4-1.4 9.6-2.2 19.2-2.5 28.9 20.4-0.6 40.7-3.7 60.5-9.2 4.2-1.2 8.3-2.4 12.4-3.8 9.3-3.1 18.4-6.7 27.3-10.9-2.5-18.7-10.9-36.7-25.2-51.1-14.4-14.4-32.5-22.8-51.1-25.3z"/>
<path class="st10" d="m403 198.8c-0.6 1.5-1.3 3-1.9 4.5-12.3 28.2-30 54.5-53.1 77.6l-1.2 1.2c2.9 30.8-7.5 62.7-31.1 86.3-16.3 16.3-36.6 26.3-57.7 30 15.5-19.4 21.7-43.8 18.5-67.2-8.9 4.2-18 7.8-27.3 10.9-4.1 1.4-8.3 2.6-12.4 3.8-19.8 5.5-40.1 8.6-60.5 9.2 0.3-9.7 1.1-19.3 2.5-28.9 0.3-2.1 0.6-4.3 1-6.4 1.5-8.5 3.3-16.9 5.7-25.3 0.6-2.1 1.2-4.2 1.8-6.2 0.6-2.1 1.3-4.1 2-6.2 3.1-9.3 6.7-18.4 10.9-27.3-23.4-3.1-47.8 3.1-67.2 18.6 3.7-21.2 13.7-41.4 30-57.7 23.6-23.6 55.5-34 86.3-31.1l1.2-1.2c23.1-23.1 49.4-40.7 77.6-53.1 1.5-0.7 3-1.3 4.5-1.9-19-9.9-40.3-16.2-62.7-18.1-103.9-8.4-190.2 81.3-177.6 184.8 2.1 17.3 6.8 33.7 13.8 48.9 6.3 13.7 7.4 29.3 2.8 43.7l-16.5 51.1c0 0.1 0.1 0.2 0.2 0.2l51.9-17.1c13.6-4.5 28.3-3.5 41.3 2.6 31.5 14.9 68.6 20.2 107.3 11.9 61.8-13.3 110.6-61.5 124.4-123.2 9.2-41.6 2.8-81.3-14.5-114.4z"/>
</g>
</svg>
