<?xml version="1.0" encoding="UTF-8" standalone="no"?>
<!-- Generator: Adobe Illustrator 21.0.2, SVG Export Plug-In . SVG Version: 6.00 Build 0)  -->

<svg
   version="1.1"
   id="Layer_1"
   x="0px"
   y="0px"
   viewBox="0 0 330.62439 330.56741"
   xml:space="preserve"
   sodipodi:docname="Rocket Chat - icons.svg"
   width="330.62439"
   height="330.56741"
   inkscape:version="1.1 (c4e8f9e, 2021-05-24)"
   xmlns:inkscape="http://www.inkscape.org/namespaces/inkscape"
   xmlns:sodipodi="http://sodipodi.sourceforge.net/DTD/sodipodi-0.dtd"
   xmlns="http://www.w3.org/2000/svg"
   xmlns:svg="http://www.w3.org/2000/svg"><defs
   id="defs435"><linearGradient
     id="SVGID_6_"
     gradientUnits="userSpaceOnUse"
     x1="176.1931"
     y1="291.5271"
     x2="276.44971"
     y2="291.5271"><stop
       offset="0"
       style="stop-color:#FEF0EB"
       id="stop294" /><stop
       offset="0.4988"
       style="stop-color:#D4E8F2"
       id="stop296" /><stop
       offset="1"
       style="stop-color:#ADE0F8"
       id="stop298" /></linearGradient><linearGradient
     id="SVGID_7_"
     gradientUnits="userSpaceOnUse"
     x1="383.01208"
     y1="235.47391"
     x2="294.29611"
     y2="353.0036"><stop
       offset="0"
       style="stop-color:#488BCA"
       id="stop303" /><stop
       offset="1"
       style="stop-color:#AEDAF4"
       id="stop305" /></linearGradient><linearGradient
     id="SVGID_8_"
     gradientUnits="userSpaceOnUse"
     x1="289.04199"
     y1="153.0484"
     x2="172.27049"
     y2="241.7644"><stop
       offset="0"
       style="stop-color:#488BCA"
       id="stop310" /><stop
       offset="1"
       style="stop-color:#AEDAF4"
       id="stop312" /></linearGradient><linearGradient
     id="SVGID_9_"
     gradientUnits="userSpaceOnUse"
     x1="239.0816"
     y1="296.06711"
     x2="411.33029"
     y2="113.0529"><stop
       offset="0"
       style="stop-color:#488BCA"
       id="stop317" /><stop
       offset="1"
       style="stop-color:#AEDAF4"
       id="stop319" /></linearGradient><linearGradient
     id="SVGID_10_"
     gradientUnits="userSpaceOnUse"
     x1="175.2168"
     y1="356.16281"
     x2="251.617"
     y2="279.7626"><stop
       offset="0"
       style="stop-color:#488BCA"
       id="stop324" /><stop
       offset="1"
       style="stop-color:#AEDAF4"
       id="stop326" /></linearGradient><linearGradient
     id="SVGID_11_"
     gradientUnits="userSpaceOnUse"
     x1="94.977303"
     y1="437.1474"
     x2="412.48279"
     y2="119.6419"><stop
       offset="0"
       style="stop-color:#2B5876"
       id="stop331" /><stop
       offset="1"
       style="stop-color:#4E4376"
       id="stop333" /></linearGradient></defs><sodipodi:namedview
   id="namedview433"
   pagecolor="#ffffff"
   bordercolor="#666666"
   borderopacity="1.0"
   inkscape:pageshadow="2"
   inkscape:pageopacity="0.0"
   inkscape:pagecheckerboard="0"
   showgrid="false"
   inkscape:zoom="0.897"
   inkscape:cx="122.07358"
   inkscape:cy="307.13489"
   inkscape:window-width="1312"
   inkscape:window-height="1081"
   inkscape:window-x="937"
   inkscape:window-y="147"
   inkscape:window-maximized="0"
   inkscape:current-layer="Layer_1" />
<style
   type="text/css"
   id="style247">
	.st0{fill:url(#SVGID_1_);}
	.st1{fill:url(#SVGID_2_);}
	.st2{fill:url(#SVGID_3_);}
	.st3{fill:url(#SVGID_4_);}
	.st4{fill:url(#SVGID_5_);}
	.st5{fill:url(#SVGID_6_);}
	.st6{fill:url(#SVGID_7_);}
	.st7{fill:url(#SVGID_8_);}
	.st8{fill:url(#SVGID_9_);}
	.st9{fill:url(#SVGID_10_);}
	.st10{fill:url(#SVGID_11_);}
	.st11{fill:url(#SVGID_12_);}
	.st12{fill:url(#SVGID_13_);}
	.st13{fill:url(#SVGID_14_);}
	.st14{fill:url(#SVGID_15_);}
	.st15{fill:url(#SVGID_16_);}
	.st16{fill:url(#SVGID_17_);}
	.st17{fill:url(#SVGID_18_);}
	.st18{fill:url(#SVGID_19_);}
	.st19{fill:url(#SVGID_20_);}
	.st20{fill:url(#SVGID_21_);}
	.st21{fill:url(#SVGID_22_);}
	.st22{fill:url(#SVGID_23_);}
</style>




<g
   id="g338"
   transform="translate(-91.074171,-109.75375)"><linearGradient
     id="linearGradient550"
     gradientUnits="userSpaceOnUse"
     x1="176.1931"
     y1="291.5271"
     x2="276.44971"
     y2="291.5271"><stop
       offset="0"
       style="stop-color:#FEF0EB"
       id="stop544" /><stop
       offset="0.4988"
       style="stop-color:#D4E8F2"
       id="stop546" /><stop
       offset="1"
       style="stop-color:#ADE0F8"
       id="stop548" /></linearGradient><path
     class="st5"
     d="m 185.4,294.6 c 0.6,-2.1 1.2,-4.2 1.8,-6.2 -0.6,2.1 -1.2,4.2 -1.8,6.2 z"
     id="path301"
     style="fill:url(#SVGID_6_)" /><linearGradient
     id="linearGradient557"
     gradientUnits="userSpaceOnUse"
     x1="383.01208"
     y1="235.47391"
     x2="294.29611"
     y2="353.0036"><stop
       offset="0"
       style="stop-color:#488BCA"
       id="stop553" /><stop
       offset="1"
       style="stop-color:#AEDAF4"
       id="stop555" /></linearGradient><path
     class="st6"
     d="m 257.9,398.4 c 21.2,-3.7 41.4,-13.7 57.7,-30 23.6,-23.6 34,-55.5 31.1,-86.3 -21.1,20.8 -44.9,37.2 -70.3,49.1 3.2,23.4 -3,47.8 -18.5,67.2 z"
     id="path308"
     style="fill:url(#SVGID_7_)" /><linearGradient
     id="linearGradient564"
     gradientUnits="userSpaceOnUse"
     x1="289.04199"
     y1="153.0484"
     x2="172.27049"
     y2="241.7644"><stop
       offset="0"
       style="stop-color:#488BCA"
       id="stop560" /><stop
       offset="1"
       style="stop-color:#AEDAF4"
       id="stop562" /></linearGradient><path
     class="st7"
     d="m 163,215.7 c -16.3,16.3 -26.3,36.6 -30,57.7 19.4,-15.5 43.8,-21.7 67.2,-18.6 11.9,-25.4 28.3,-49.2 49.1,-70.3 -30.8,-2.8 -62.7,7.6 -86.3,31.2 z"
     id="path315"
     style="fill:url(#SVGID_8_)" /><linearGradient
     id="linearGradient571"
     gradientUnits="userSpaceOnUse"
     x1="239.0816"
     y1="296.06711"
     x2="411.33029"
     y2="113.0529"><stop
       offset="0"
       style="stop-color:#488BCA"
       id="stop567" /><stop
       offset="1"
       style="stop-color:#AEDAF4"
       id="stop569" /></linearGradient><path
     class="st8"
     d="m 414.9,116.5 c -4.3,-4.3 -10.1,-6.1 -15.7,-5.6 -0.3,0 -0.6,0.1 -0.9,0.1 -22.4,2.8 -44.6,8.6 -65.8,17.4 -1.5,0.6 -3,1.3 -4.5,1.9 -28.2,12.3 -54.5,30 -77.6,53.1 -0.4,0.4 -0.8,0.8 -1.2,1.2 -20.8,21.1 -37.2,44.9 -49.1,70.3 18.7,2.5 36.7,10.9 51.1,25.2 14.3,14.3 22.8,32.4 25.2,51.1 25.4,-11.9 49.2,-28.3 70.3,-49.1 0.4,-0.4 0.8,-0.8 1.2,-1.2 23.1,-23.1 40.7,-49.4 53.1,-77.6 0.7,-1.5 1.3,-3 1.9,-4.5 8.8,-21.2 14.6,-43.3 17.4,-65.7 0.1,-0.3 0.1,-0.6 0.1,-0.9 0.7,-5.7 -1.2,-11.5 -5.5,-15.7 z m -66.8,92 c -13.9,0 -25.2,-11.3 -25.2,-25.2 0,-13.9 11.3,-25.2 25.2,-25.2 13.9,0 25.2,11.3 25.2,25.2 0,13.9 -11.3,25.2 -25.2,25.2 z"
     id="path322"
     style="fill:url(#SVGID_9_)" /><linearGradient
     id="linearGradient578"
     gradientUnits="userSpaceOnUse"
     x1="175.2168"
     y1="356.16281"
     x2="251.617"
     y2="279.7626"><stop
       offset="0"
       style="stop-color:#488BCA"
       id="stop574" /><stop
       offset="1"
       style="stop-color:#AEDAF4"
       id="stop576" /></linearGradient><path
     class="st9"
     d="m 200.2,254.9 c -4.2,8.9 -7.8,18 -10.9,27.3 -0.7,2.1 -1.3,4.1 -2,6.2 -0.6,2.1 -1.2,4.1 -1.8,6.2 -2.3,8.3 -4.2,16.8 -5.7,25.3 -0.4,2.1 -0.7,4.2 -1,6.4 -1.4,9.6 -2.2,19.2 -2.5,28.9 20.4,-0.6 40.7,-3.7 60.5,-9.2 4.2,-1.2 8.3,-2.4 12.4,-3.8 9.3,-3.1 18.4,-6.7 27.3,-10.9 -2.5,-18.7 -10.9,-36.7 -25.2,-51.1 -14.4,-14.4 -32.5,-22.8 -51.1,-25.3 z"
     id="path329"
     style="fill:url(#SVGID_10_)" /><linearGradient
     id="linearGradient585"
     gradientUnits="userSpaceOnUse"
     x1="94.977303"
     y1="437.1474"
     x2="412.48279"
     y2="119.6419"><stop
       offset="0"
       style="stop-color:#2B5876"
       id="stop581" /><stop
       offset="1"
       style="stop-color:#4E4376"
       id="stop583" /></linearGradient><path
     class="st10"
     d="m 403,198.8 c -0.6,1.5 -1.3,3 -1.9,4.5 -12.3,28.2 -30,54.5 -53.1,77.6 -0.4,0.4 -0.8,0.8 -1.2,1.2 2.9,30.8 -7.5,62.7 -31.1,86.3 -16.3,16.3 -36.6,26.3 -57.7,30 15.5,-19.4 21.7,-43.8 18.5,-67.2 -8.9,4.2 -18,7.8 -27.3,10.9 -4.1,1.4 -8.3,2.6 -12.4,3.8 -19.8,5.5 -40.1,8.6 -60.5,9.2 0.3,-9.7 1.1,-19.3 2.5,-28.9 0.3,-2.1 0.6,-4.3 1,-6.4 1.5,-8.5 3.3,-16.9 5.7,-25.3 0.6,-2.1 1.2,-4.2 1.8,-6.2 0.6,-2.1 1.3,-4.1 2,-6.2 3.1,-9.3 6.7,-18.4 10.9,-27.3 -23.4,-3.1 -47.8,3.1 -67.2,18.6 3.7,-21.2 13.7,-41.4 30,-57.7 23.6,-23.6 55.5,-34 86.3,-31.1 0.4,-0.4 0.8,-0.8 1.2,-1.2 23.1,-23.1 49.4,-40.7 77.6,-53.1 1.5,-0.7 3,-1.3 4.5,-1.9 -19,-9.9 -40.3,-16.2 -62.7,-18.1 C 166,101.9 79.7,191.6 92.3,295.1 c 2.1,17.3 6.8,33.7 13.8,48.9 6.3,13.7 7.4,29.3 2.8,43.7 l -16.5,51.1 c 0,0.1 0.1,0.2 0.2,0.2 l 51.9,-17.1 c 13.6,-4.5 28.3,-3.5 41.3,2.6 31.5,14.9 68.6,20.2 107.3,11.9 61.8,-13.3 110.6,-61.5 124.4,-123.2 9.2,-41.6 2.8,-81.3 -14.5,-114.4 z"
     id="path336"
     style="fill:url(#SVGID_11_)" /></g></svg>
