<?xml version="1.0" standalone="no"?>
<!DOCTYPE svg PUBLIC "-//W3C//DTD SVG 20010904//EN"
 "http://www.w3.org/TR/2001/REC-SVG-20010904/DTD/svg10.dtd">
<svg version="1.0" xmlns="http://www.w3.org/2000/svg"
 width="512.000000pt" height="512.000000pt" viewBox="0 0 512.000000 512.000000"
 preserveAspectRatio="xMidYMid meet">
<metadata>
Created by potrace 1.14, written by Peter Selinger 2001-2017
</metadata>
<g transform="translate(0.000000,512.000000) scale(0.100000,-0.100000)"
fill="#000000" stroke="none">
<path d="M2379 5116 c-2 -2 -40 -6 -83 -10 -44 -4 -82 -9 -85 -11 -4 -2 -34
-7 -66 -10 -120 -14 -362 -81 -515 -142 -122 -48 -381 -179 -388 -195 -2 -5
-8 -8 -12 -8 -11 0 -82 -47 -180 -119 -336 -247 -634 -608 -805 -976 -73 -156
-144 -355 -170 -473 -5 -22 -8 -33 -19 -82 -38 -162 -54 -338 -51 -565 2 -121
5 -229 8 -240 3 -11 8 -49 13 -85 4 -36 8 -67 9 -70 1 -3 5 -25 9 -50 25 -145
88 -345 166 -535 90 -216 101 -262 105 -435 4 -152 -5 -192 -130 -578 -48
-147 -102 -316 -122 -377 -19 -60 -36 -116 -39 -124 -3 -8 1 -11 10 -8 61 24
852 279 891 288 74 17 236 18 318 3 95 -18 150 -36 268 -90 166 -74 397 -148
559 -177 88 -17 114 -20 235 -34 81 -10 421 -10 520 0 102 10 168 21 365 62
79 16 214 60 333 107 579 228 1048 660 1325 1218 89 180 89 178 140 335 88
266 125 501 126 805 1 293 -15 429 -79 675 -42 158 -122 371 -189 500 -13 24
-11 33 13 93 82 198 169 507 215 765 9 49 28 184 30 217 6 85 -42 193 -109
245 -87 66 -184 83 -316 56 -30 -6 -70 -13 -89 -15 -19 -3 -60 -10 -90 -16
-30 -6 -67 -13 -81 -15 -117 -21 -515 -143 -631 -193 l-46 -21 -83 41 c-117
56 -276 118 -389 149 -25 7 -49 14 -55 15 -32 10 -254 54 -293 59 -26 3 -63 8
-82 11 -41 6 -455 16 -461 10z m1727 -766 c203 -70 311 -289 243 -493 -35
-104 -104 -180 -207 -228 -269 -125 -575 93 -548 390 23 246 277 411 512 331z"/>
</g>
</svg>
