<?xml version="1.0" encoding="utf-8"?>
<!-- Generator: Adobe Illustrator 21.0.2, SVG Export Plug-In . SVG Version: 6.00 Build 0)  -->
<svg version="1.1" id="Layer_1" xmlns="http://www.w3.org/2000/svg" xmlns:xlink="http://www.w3.org/1999/xlink" x="0px" y="0px"
	 viewBox="0 0 1000 1000" style="enable-background:new 0 0 1000 1000;" xml:space="preserve">
<style type="text/css">
	.st0{fill:#0C0C0C;}
	.st1{fill:url(#SVGID_1_);}
	.st2{fill:#FFFFFF;}
</style>
<rect class="st0" width="1000" height="500"/>
<g>
	<linearGradient id="SVGID_1_" gradientUnits="userSpaceOnUse" x1="113.3245" y1="265.1053" x2="176.9842" y2="265.1053">
		<stop  offset="0" style="stop-color:#FEF0EB"/>
		<stop  offset="0.4988" style="stop-color:#D4E8F2"/>
		<stop  offset="1" style="stop-color:#ADE0F8"/>
	</linearGradient>
	<path class="st1" d="M119.2,267.1c0.4-1.3,0.8-2.6,1.2-4C119.9,264.4,119.5,265.8,119.2,267.1z"/>
	<g>
		<path class="st2" d="M170.1,291.6c0.1,0.6,0.1,1.1,0.2,1.7c0,0,0,0,0,0L170.1,291.6z"/>
		<path class="st2" d="M125.6,248.6C125.6,248.6,125.6,248.6,125.6,248.6c0.7,0.1,1.4,0.2,2,0.3L125.6,248.6z"/>
		<path class="st2" d="M222.5,180.3c-8.8,0-16,7.2-16,16c0,8.8,7.2,16,16,16c8.8,0,16-7.2,16-16
			C238.5,187.5,231.3,180.3,222.5,180.3z M222.5,205.3c-4.9,0-9-4-9-9c0-4.9,4-9,9-9s9,4,9,9C231.4,201.3,227.4,205.3,222.5,205.3z
			 M222.5,180.3c-8.8,0-16,7.2-16,16c0,8.8,7.2,16,16,16c8.8,0,16-7.2,16-16C238.5,187.5,231.3,180.3,222.5,180.3z M222.5,205.3
			c-4.9,0-9-4-9-9c0-4.9,4-9,9-9s9,4,9,9C231.4,201.3,227.4,205.3,222.5,205.3z M222.5,180.3c-8.8,0-16,7.2-16,16
			c0,8.8,7.2,16,16,16c8.8,0,16-7.2,16-16C238.5,187.5,231.3,180.3,222.5,180.3z M222.5,205.3c-4.9,0-9-4-9-9c0-4.9,4-9,9-9s9,4,9,9
			C231.4,201.3,227.4,205.3,222.5,205.3z M222.5,180.3c-8.8,0-16,7.2-16,16c0,8.8,7.2,16,16,16c8.8,0,16-7.2,16-16
			C238.5,187.5,231.3,180.3,222.5,180.3z M222.5,205.3c-4.9,0-9-4-9-9c0-4.9,4-9,9-9s9,4,9,9C231.4,201.3,227.4,205.3,222.5,205.3z
			 M222.5,180.3c-8.8,0-16,7.2-16,16c0,8.8,7.2,16,16,16c8.8,0,16-7.2,16-16C238.5,187.5,231.3,180.3,222.5,180.3z M222.5,205.3
			c-4.9,0-9-4-9-9c0-4.9,4-9,9-9s9,4,9,9C231.4,201.3,227.4,205.3,222.5,205.3z M222.5,180.3c-8.8,0-16,7.2-16,16
			c0,8.8,7.2,16,16,16c8.8,0,16-7.2,16-16C238.5,187.5,231.3,180.3,222.5,180.3z M222.5,205.3c-4.9,0-9-4-9-9c0-4.9,4-9,9-9s9,4,9,9
			C231.4,201.3,227.4,205.3,222.5,205.3z M222.5,180.3c-8.8,0-16,7.2-16,16c0,8.8,7.2,16,16,16c8.8,0,16-7.2,16-16
			C238.5,187.5,231.3,180.3,222.5,180.3z M222.5,205.3c-4.9,0-9-4-9-9c0-4.9,4-9,9-9s9,4,9,9C231.4,201.3,227.4,205.3,222.5,205.3z
			 M222.5,180.3c-8.8,0-16,7.2-16,16c0,8.8,7.2,16,16,16c8.8,0,16-7.2,16-16C238.5,187.5,231.3,180.3,222.5,180.3z M222.5,205.3
			c-4.9,0-9-4-9-9c0-4.9,4-9,9-9s9,4,9,9C231.4,201.3,227.4,205.3,222.5,205.3z M177.5,297.8L177.5,297.8l2.5-1.1
			C179.2,297.1,178.3,297.5,177.5,297.8z M222.5,180.3c-8.8,0-16,7.2-16,16c0,8.8,7.2,16,16,16c8.8,0,16-7.2,16-16
			C238.5,187.5,231.3,180.3,222.5,180.3z M222.5,205.3c-4.9,0-9-4-9-9c0-4.9,4-9,9-9s9,4,9,9C231.4,201.3,227.4,205.3,222.5,205.3z
			 M222.5,180.3c-8.8,0-16,7.2-16,16c0,8.8,7.2,16,16,16c8.8,0,16-7.2,16-16C238.5,187.5,231.3,180.3,222.5,180.3z M222.5,205.3
			c-4.9,0-9-4-9-9c0-4.9,4-9,9-9s9,4,9,9C231.4,201.3,227.4,205.3,222.5,205.3z M177.5,297.8L177.5,297.8l2.5-1.1
			C179.2,297.1,178.3,297.5,177.5,297.8z M222.5,180.3c-8.8,0-16,7.2-16,16c0,8.8,7.2,16,16,16c8.8,0,16-7.2,16-16
			C238.5,187.5,231.3,180.3,222.5,180.3z M222.5,205.3c-4.9,0-9-4-9-9c0-4.9,4-9,9-9s9,4,9,9C231.4,201.3,227.4,205.3,222.5,205.3z
			 M222.5,180.3c-8.8,0-16,7.2-16,16c0,8.8,7.2,16,16,16c8.8,0,16-7.2,16-16C238.5,187.5,231.3,180.3,222.5,180.3z M222.5,205.3
			c-4.9,0-9-4-9-9c0-4.9,4-9,9-9s9,4,9,9C231.4,201.3,227.4,205.3,222.5,205.3z M177.5,297.8L177.5,297.8l2.5-1.1
			C179.2,297.1,178.3,297.5,177.5,297.8z M222.5,180.3c-8.8,0-16,7.2-16,16c0,8.8,7.2,16,16,16c8.8,0,16-7.2,16-16
			C238.5,187.5,231.3,180.3,222.5,180.3z M222.5,205.3c-4.9,0-9-4-9-9c0-4.9,4-9,9-9s9,4,9,9C231.4,201.3,227.4,205.3,222.5,205.3z
			 M222.5,180.3c-8.8,0-16,7.2-16,16c0,8.8,7.2,16,16,16c8.8,0,16-7.2,16-16C238.5,187.5,231.3,180.3,222.5,180.3z M222.5,205.3
			c-4.9,0-9-4-9-9c0-4.9,4-9,9-9s9,4,9,9C231.4,201.3,227.4,205.3,222.5,205.3z M222.5,180.3c-8.8,0-16,7.2-16,16
			c0,8.8,7.2,16,16,16c8.8,0,16-7.2,16-16C238.5,187.5,231.3,180.3,222.5,180.3z M222.5,205.3c-4.9,0-9-4-9-9c0-4.9,4-9,9-9s9,4,9,9
			C231.4,201.3,227.4,205.3,222.5,205.3z M222.5,180.3c-8.8,0-16,7.2-16,16c0,8.8,7.2,16,16,16c8.8,0,16-7.2,16-16
			C238.5,187.5,231.3,180.3,222.5,180.3z M222.5,205.3c-4.9,0-9-4-9-9c0-4.9,4-9,9-9s9,4,9,9C231.4,201.3,227.4,205.3,222.5,205.3z
			 M222.5,180.3c-8.8,0-16,7.2-16,16c0,8.8,7.2,16,16,16c8.8,0,16-7.2,16-16C238.5,187.5,231.3,180.3,222.5,180.3z M222.5,205.3
			c-4.9,0-9-4-9-9c0-4.9,4-9,9-9s9,4,9,9C231.4,201.3,227.4,205.3,222.5,205.3z M222.5,180.3c-8.8,0-16,7.2-16,16
			c0,8.8,7.2,16,16,16c8.8,0,16-7.2,16-16C238.5,187.5,231.3,180.3,222.5,180.3z M222.5,205.3c-4.9,0-9-4-9-9c0-4.9,4-9,9-9s9,4,9,9
			C231.4,201.3,227.4,205.3,222.5,205.3z M222.5,180.3c-8.8,0-16,7.2-16,16c0,8.8,7.2,16,16,16c8.8,0,16-7.2,16-16
			C238.5,187.5,231.3,180.3,222.5,180.3z M222.5,205.3c-4.9,0-9-4-9-9c0-4.9,4-9,9-9s9,4,9,9C231.4,201.3,227.4,205.3,222.5,205.3z
			 M121,241.4L121,241.4c0.4-0.8,0.8-1.7,1.2-2.5L121,241.4z M177.5,297.8L177.5,297.8l2.5-1.1C179.2,297.1,178.3,297.5,177.5,297.8
			z M222.5,180.3c-8.8,0-16,7.2-16,16c0,8.8,7.2,16,16,16c8.8,0,16-7.2,16-16C238.5,187.5,231.3,180.3,222.5,180.3z M222.5,205.3
			c-4.9,0-9-4-9-9c0-4.9,4-9,9-9s9,4,9,9C231.4,201.3,227.4,205.3,222.5,205.3z M222.5,180.3c-8.8,0-16,7.2-16,16
			c0,8.8,7.2,16,16,16c8.8,0,16-7.2,16-16C238.5,187.5,231.3,180.3,222.5,180.3z M222.5,205.3c-4.9,0-9-4-9-9c0-4.9,4-9,9-9s9,4,9,9
			C231.4,201.3,227.4,205.3,222.5,205.3z M222.5,180.3c-8.8,0-16,7.2-16,16c0,8.8,7.2,16,16,16c8.8,0,16-7.2,16-16
			C238.5,187.5,231.3,180.3,222.5,180.3z M222.5,205.3c-4.9,0-9-4-9-9c0-4.9,4-9,9-9s9,4,9,9C231.4,201.3,227.4,205.3,222.5,205.3z
			 M222.5,180.3c-8.8,0-16,7.2-16,16c0,8.8,7.2,16,16,16c8.8,0,16-7.2,16-16C238.5,187.5,231.3,180.3,222.5,180.3z M222.5,205.3
			c-4.9,0-9-4-9-9c0-4.9,4-9,9-9s9,4,9,9C231.4,201.3,227.4,205.3,222.5,205.3z M222.5,180.3c-8.8,0-16,7.2-16,16
			c0,8.8,7.2,16,16,16c8.8,0,16-7.2,16-16C238.5,187.5,231.3,180.3,222.5,180.3z M222.5,205.3c-4.9,0-9-4-9-9c0-4.9,4-9,9-9s9,4,9,9
			C231.4,201.3,227.4,205.3,222.5,205.3z M222.5,180.3c-8.8,0-16,7.2-16,16c0,8.8,7.2,16,16,16c8.8,0,16-7.2,16-16
			C238.5,187.5,231.3,180.3,222.5,180.3z M222.5,205.3c-4.9,0-9-4-9-9c0-4.9,4-9,9-9s9,4,9,9C231.4,201.3,227.4,205.3,222.5,205.3z"
			/>
		<path class="st2" d="M184.6,294.4c-1,0.5-2,1-3,1.5L184.6,294.4L184.6,294.4z M124.4,234.2l-1.4,3.1
			C123.4,236.2,123.9,235.2,124.4,234.2L124.4,234.2z"/>
	</g>
	<path class="st2" d="M269.9,149c-3.7-3.7-8.6-5.7-13.7-5.7c-0.6,0-1.2,0-1.8,0.1c-0.3,0-0.6,0.1-0.9,0.1
		c-15,1.9-29.6,5.8-43.5,11.5c-1,0.4-1.9,0.8-3,1.3c-0.9,0.4-1.9,0.8-2.8,1.3c-9.8-4-20.3-6.6-31.3-7.5
		c-66-5.3-120.7,51.6-112.8,117.3c1.3,11,4.3,21.4,8.8,31c4,8.7,4.7,18.6,1.8,27.8l-10.5,32.5c0,0.1,0,0.1,0.1,0.1l33-10.8
		c8.6-2.8,18-2.2,26.2,1.6c20,9.5,43.5,12.8,68.1,7.6c39.3-8.4,70.2-39,79-78.2c5.1-22.9,2.7-44.9-5.1-64.1c0.4-0.9,0.8-1.9,1.3-2.8
		c0.5-1.2,0.9-2.1,1.3-3c5.8-13.8,9.6-28.5,11.5-43.4c0.1-0.4,0.1-0.7,0.1-0.9C276,158.8,274,153.1,269.9,149z M101.5,244.8
		c-0.7,0.3-1.5,0.6-2.2,0.9c-2.6,1.1-5,2.3-7.5,3.8c-0.7,0.4-1.4,0.9-2,1.3c-1.3,0.9-2.7,1.9-3.9,2.9c2.3-13.4,8.7-26.3,19.1-36.7
		c5.4-5.4,11.6-9.8,18.1-13c1-0.5,1.9-0.9,2.9-1.3c0.1-0.1,0.3-0.1,0.4-0.2c2-0.8,4-1.6,6-2.2c0.3-0.1,0.5-0.2,0.7-0.2
		c0.6-0.2,1.1-0.4,1.7-0.5c5.1-1.4,10.2-2.3,15.5-2.5c-10.3,11.2-18.9,23.7-25.8,37.2c-0.5,1-1,2-1.5,3.1l-0.8,1.6l0,0
		c-0.4,0.8-0.8,1.7-1.1,2.5h0C114.4,241.4,107.8,242.5,101.5,244.8z M159.6,297.3c-2.6,0.9-5.2,1.7-7.9,2.4
		c-12.6,3.5-25.5,5.4-38.4,5.8c0.2-6.1,0.7-12.3,1.6-18.4c0.2-1.4,0.4-2.7,0.6-4c0.9-5.4,2.1-10.7,3.6-16c0.4-1.3,0.8-2.6,1.2-4
		c0.4-1.3,0.8-2.6,1.3-3.9c1.2-3.6,2.5-7.1,4-10.6c0,0,0,0,0,0l2,0.3c10.8,1.4,20.6,6.3,28.4,14c7.7,7.7,12.6,17.6,14,28.4l0.1,0.4
		l0.2,1.6c0,0,0,0,0,0C166.7,294.8,163.2,296.1,159.6,297.3z M201.9,313.9c-10.4,10.4-23.2,16.7-36.7,19.1
		c8.2-10.2,12.3-22.7,12.3-35.1v0c0.8-0.4,1.7-0.8,2.5-1.1l0,0l1.6-0.8c1-0.5,2-1,3-1.5c13.5-6.9,26-15.5,37.2-25.8
		C221.1,285.1,214.5,301.3,201.9,313.9z M268.5,163.9c0,0.2,0,0.4-0.1,0.6c-1.8,14.2-5.5,28.3-11.1,41.7c-0.4,1-0.8,1.9-1.2,2.9
		c-6.8,15.5-16.1,30.1-28,43.3c-1.8,2-3.7,4-5.7,6c-0.3,0.3-0.5,0.5-0.8,0.8c-11.5,11.4-24.4,20.7-38.1,27.9
		c-2.2,1.2-4.4,2.3-6.6,3.3c-0.3-2.4-0.8-4.8-1.4-7.1c-2.5-9.3-7.3-18-14.6-25.3c-7.3-7.3-16-12.1-25.3-14.6
		c-2.4-0.6-4.7-1.1-7.1-1.4c1-2.2,2.1-4.4,3.3-6.6c7.2-13.7,16.5-26.5,27.9-38c0.2-0.3,0.5-0.5,0.8-0.8c2-2,4-3.9,6-5.7
		c13.2-11.9,27.8-21.2,43.3-28c1-0.4,1.9-0.8,2.9-1.2c13.5-5.6,27.5-9.3,41.8-11.1c0.2,0,0.4-0.1,0.6-0.1c0.4,0,0.8-0.1,1.2-0.1
		c3.2,0,6.3,1.2,8.8,3.6C267.6,156.7,268.8,160.3,268.5,163.9z"/>
	<g>
		<path class="st2" d="M367.3,259.1l-10.1-14.5h-0.6h-10.5v14.5h-12.1V207h22.6c4.6,0,8.6,0.8,12,2.3c3.4,1.5,6,3.7,7.9,6.6
			c1.8,2.8,2.8,6.2,2.8,10.1c0,3.9-0.9,7.2-2.8,10c-1.9,2.8-4.5,5-7.9,6.4l11.7,16.8H367.3z M364.2,219.2c-1.9-1.6-4.6-2.3-8.3-2.3
			h-9.8V235h9.8c3.6,0,6.4-0.8,8.3-2.4c1.9-1.6,2.8-3.8,2.8-6.7C367.1,223,366.1,220.7,364.2,219.2z"/>
		<path class="st2" d="M395.7,257.1c-3.3-1.8-6-4.2-7.9-7.3c-1.9-3.1-2.8-6.7-2.8-10.6c0-4,0.9-7.5,2.8-10.6
			c1.9-3.1,4.5-5.6,7.9-7.3c3.4-1.8,7.1-2.6,11.4-2.6c4.2,0,8,0.9,11.3,2.6c3.3,1.8,5.9,4.2,7.8,7.3c1.9,3.1,2.8,6.7,2.8,10.6
			c0,4-0.9,7.5-2.8,10.6c-1.9,3.1-4.5,5.6-7.8,7.3c-3.3,1.8-7.1,2.6-11.3,2.6C402.8,259.7,399,258.8,395.7,257.1z M414.4,247.2
			c1.9-2,2.9-4.7,2.9-8.1c0-3.4-1-6.1-2.9-8.1c-1.9-2-4.4-3-7.3-3c-3,0-5.4,1-7.4,3c-1.9,2-2.9,4.7-2.9,8.1c0,3.4,1,6.1,2.9,8.1
			c1.9,2,4.4,3,7.4,3C410,250.2,412.5,249.2,414.4,247.2z"/>
		<path class="st2" d="M444.6,257.1c-3.4-1.8-6.1-4.2-8-7.3s-2.9-6.7-2.9-10.6c0-4,1-7.5,2.9-10.6c1.9-3.1,4.6-5.6,8-7.3
			c3.4-1.8,7.2-2.6,11.5-2.6c4.2,0,7.9,0.9,11.1,2.6c3.2,1.8,5.4,4.3,6.9,7.6l-9,4.8c-2.1-3.7-5.1-5.5-9-5.5c-3,0-5.5,1-7.5,3
			c-2,2-3,4.7-3,8.1c0,3.4,1,6.1,3,8.1c2,2,4.5,3,7.5,3c4,0,7-1.8,9-5.5l9,4.9c-1.4,3.2-3.7,5.7-6.9,7.4c-3.2,1.8-6.8,2.7-11.1,2.7
			C451.8,259.7,448,258.8,444.6,257.1z"/>
		<path class="st2" d="M497.7,243.4l-5.6,5.5v10.2h-11.6v-55.3h11.6v31.3l17-16.1h13.9l-16.7,17l18.2,23.1h-14.1L497.7,243.4z"/>
		<path class="st2" d="M566.9,242.4h-30.3c0.5,2.5,1.8,4.4,3.9,5.9c2,1.4,4.6,2.2,7.6,2.2c2.1,0,3.9-0.3,5.5-0.9
			c1.6-0.6,3.1-1.6,4.5-2.9l6.2,6.7c-3.8,4.3-9.3,6.5-16.5,6.5c-4.5,0-8.5-0.9-12-2.6c-3.5-1.8-6.2-4.2-8-7.3s-2.8-6.7-2.8-10.6
			c0-3.9,0.9-7.5,2.8-10.6c1.9-3.2,4.4-5.6,7.7-7.4c3.3-1.8,6.9-2.6,10.9-2.6c3.9,0,7.5,0.8,10.6,2.5c3.2,1.7,5.7,4.1,7.5,7.3
			c1.8,3.2,2.7,6.8,2.7,11C567.1,239.4,567.1,240.4,566.9,242.4z M539.7,229.5c-1.8,1.5-2.9,3.5-3.3,6.1h19.7
			c-0.4-2.5-1.5-4.6-3.3-6.1c-1.8-1.5-4-2.3-6.6-2.3C543.7,227.2,541.5,228,539.7,229.5z"/>
		<path class="st2" d="M600.7,257.2c-1.1,0.8-2.5,1.5-4.2,1.9c-1.7,0.4-3.4,0.6-5.3,0.6c-4.8,0-8.5-1.2-11.1-3.6
			c-2.6-2.4-3.9-6-3.9-10.7v-16.5h-6.2v-8.9h6.2v-9.8h11.6v9.8h10v8.9h-10v16.3c0,1.7,0.4,3,1.3,3.9c0.9,0.9,2.1,1.4,3.7,1.4
			c1.8,0,3.4-0.5,4.7-1.5L600.7,257.2z"/>
	</g>
	<g>
		<path class="st2" d="M347.4,325.2c-4.1-2.3-7.4-5.4-9.8-9.5c-2.4-4-3.5-8.6-3.5-13.6c0-5,1.2-9.5,3.5-13.6c2.4-4,5.6-7.2,9.8-9.5
			c4.2-2.3,8.8-3.4,14-3.4c3.9,0,7.4,0.6,10.7,1.9c3.3,1.3,6.1,3.2,8.3,5.7l-3.5,3.5c-4.1-4.1-9.2-6.2-15.4-6.2
			c-4.1,0-7.9,0.9-11.2,2.8c-3.4,1.9-6,4.5-7.9,7.7c-1.9,3.3-2.9,7-2.9,11c0,4.1,1,7.7,2.9,11c1.9,3.3,4.6,5.9,7.9,7.7
			c3.4,1.9,7.1,2.8,11.2,2.8c6.3,0,11.4-2.1,15.4-6.3l3.5,3.5c-2.3,2.5-5.1,4.4-8.4,5.7c-3.3,1.3-6.9,2-10.8,2
			C356.2,328.7,351.5,327.5,347.4,325.2z"/>
		<path class="st2" d="M422.8,293c2.9,2.9,4.4,7,4.4,12.5v22.7h-5.3V306c0-4.1-1-7.2-3.1-9.3c-2-2.1-4.9-3.2-8.7-3.2
			c-4.2,0-7.6,1.3-10,3.8c-2.5,2.5-3.7,6-3.7,10.4v20.6h-5.3V273h5.3v22.9c1.4-2.3,3.4-4,6-5.3c2.5-1.2,5.4-1.9,8.7-1.9
			C416,288.8,419.9,290.2,422.8,293z"/>
		<path class="st2" d="M467,292.6c2.7,2.6,4.1,6.3,4.1,11.4v24.3H466v-6.1c-1.2,2-2.9,3.6-5.3,4.8c-2.3,1.1-5.1,1.7-8.2,1.7
			c-4.4,0-7.8-1-10.4-3.1c-2.6-2.1-3.9-4.8-3.9-8.3c0-3.3,1.2-6,3.6-8c2.4-2,6.2-3.1,11.5-3.1h12.4v-2.4c0-3.4-0.9-5.9-2.8-7.7
			c-1.9-1.8-4.6-2.6-8.3-2.6c-2.5,0-4.9,0.4-7.1,1.2c-2.3,0.8-4.2,1.9-5.9,3.4l-2.4-3.9c2-1.7,4.4-3,7.1-3.9
			c2.8-0.9,5.7-1.4,8.8-1.4C460.3,288.8,464.3,290,467,292.6z M461,322.4c2.1-1.4,3.7-3.3,4.8-5.9V310h-12.3c-6.7,0-10.1,2.3-10.1,7
			c0,2.3,0.9,4.1,2.6,5.4c1.7,1.3,4.2,2,7.3,2C456.3,324.4,458.9,323.7,461,322.4z"/>
		<path class="st2" d="M506.1,325.8c-1,0.9-2.2,1.6-3.7,2c-1.5,0.5-3,0.7-4.6,0.7c-3.7,0-6.5-1-8.5-3c-2-2-3-4.8-3-8.4v-23.7h-7
			v-4.5h7v-8.6h5.3v8.6h11.9v4.5h-11.9v23.4c0,2.3,0.6,4.1,1.7,5.3c1.2,1.2,2.8,1.8,5,1.8c1.1,0,2.1-0.2,3.2-0.5
			c1-0.3,1.9-0.8,2.6-1.5L506.1,325.8z"/>
	</g>
</g>
<g>
	<g>
		<path class="st2" d="M835.2,288.8c0.1,0.6,0.1,1.1,0.2,1.7c0,0,0,0,0,0L835.2,288.8z"/>
		<path class="st2" d="M790.7,245.7C790.7,245.7,790.7,245.7,790.7,245.7c0.7,0.1,1.4,0.2,2,0.3L790.7,245.7z"/>
		<path class="st2" d="M887.6,177.5c-8.8,0-16,7.2-16,16c0,8.8,7.2,16,16,16c8.8,0,16-7.2,16-16
			C903.7,184.6,896.5,177.5,887.6,177.5z M887.6,202.5c-4.9,0-9-4-9-9c0-4.9,4-9,9-9c4.9,0,9,4,9,9
			C896.6,198.4,892.6,202.5,887.6,202.5z M887.6,177.5c-8.8,0-16,7.2-16,16c0,8.8,7.2,16,16,16c8.8,0,16-7.2,16-16
			C903.7,184.6,896.5,177.5,887.6,177.5z M887.6,202.5c-4.9,0-9-4-9-9c0-4.9,4-9,9-9c4.9,0,9,4,9,9
			C896.6,198.4,892.6,202.5,887.6,202.5z M887.6,177.5c-8.8,0-16,7.2-16,16c0,8.8,7.2,16,16,16c8.8,0,16-7.2,16-16
			C903.7,184.6,896.5,177.5,887.6,177.5z M887.6,202.5c-4.9,0-9-4-9-9c0-4.9,4-9,9-9c4.9,0,9,4,9,9
			C896.6,198.4,892.6,202.5,887.6,202.5z M887.6,177.5c-8.8,0-16,7.2-16,16c0,8.8,7.2,16,16,16c8.8,0,16-7.2,16-16
			C903.7,184.6,896.5,177.5,887.6,177.5z M887.6,202.5c-4.9,0-9-4-9-9c0-4.9,4-9,9-9c4.9,0,9,4,9,9
			C896.6,198.4,892.6,202.5,887.6,202.5z M887.6,177.5c-8.8,0-16,7.2-16,16c0,8.8,7.2,16,16,16c8.8,0,16-7.2,16-16
			C903.7,184.6,896.5,177.5,887.6,177.5z M887.6,202.5c-4.9,0-9-4-9-9c0-4.9,4-9,9-9c4.9,0,9,4,9,9
			C896.6,198.4,892.6,202.5,887.6,202.5z M887.6,177.5c-8.8,0-16,7.2-16,16c0,8.8,7.2,16,16,16c8.8,0,16-7.2,16-16
			C903.7,184.6,896.5,177.5,887.6,177.5z M887.6,202.5c-4.9,0-9-4-9-9c0-4.9,4-9,9-9c4.9,0,9,4,9,9
			C896.6,198.4,892.6,202.5,887.6,202.5z M887.6,177.5c-8.8,0-16,7.2-16,16c0,8.8,7.2,16,16,16c8.8,0,16-7.2,16-16
			C903.7,184.6,896.5,177.5,887.6,177.5z M887.6,202.5c-4.9,0-9-4-9-9c0-4.9,4-9,9-9c4.9,0,9,4,9,9
			C896.6,198.4,892.6,202.5,887.6,202.5z M887.6,177.5c-8.8,0-16,7.2-16,16c0,8.8,7.2,16,16,16c8.8,0,16-7.2,16-16
			C903.7,184.6,896.5,177.5,887.6,177.5z M887.6,202.5c-4.9,0-9-4-9-9c0-4.9,4-9,9-9c4.9,0,9,4,9,9
			C896.6,198.4,892.6,202.5,887.6,202.5z M842.7,295L842.7,295l2.5-1.1C844.3,294.2,843.5,294.6,842.7,295z M887.6,177.5
			c-8.8,0-16,7.2-16,16c0,8.8,7.2,16,16,16c8.8,0,16-7.2,16-16C903.7,184.6,896.5,177.5,887.6,177.5z M887.6,202.5c-4.9,0-9-4-9-9
			c0-4.9,4-9,9-9c4.9,0,9,4,9,9C896.6,198.4,892.6,202.5,887.6,202.5z M887.6,177.5c-8.8,0-16,7.2-16,16c0,8.8,7.2,16,16,16
			c8.8,0,16-7.2,16-16C903.7,184.6,896.5,177.5,887.6,177.5z M887.6,202.5c-4.9,0-9-4-9-9c0-4.9,4-9,9-9c4.9,0,9,4,9,9
			C896.6,198.4,892.6,202.5,887.6,202.5z M842.7,295L842.7,295l2.5-1.1C844.3,294.2,843.5,294.6,842.7,295z M887.6,177.5
			c-8.8,0-16,7.2-16,16c0,8.8,7.2,16,16,16c8.8,0,16-7.2,16-16C903.7,184.6,896.5,177.5,887.6,177.5z M887.6,202.5c-4.9,0-9-4-9-9
			c0-4.9,4-9,9-9c4.9,0,9,4,9,9C896.6,198.4,892.6,202.5,887.6,202.5z M887.6,177.5c-8.8,0-16,7.2-16,16c0,8.8,7.2,16,16,16
			c8.8,0,16-7.2,16-16C903.7,184.6,896.5,177.5,887.6,177.5z M887.6,202.5c-4.9,0-9-4-9-9c0-4.9,4-9,9-9c4.9,0,9,4,9,9
			C896.6,198.4,892.6,202.5,887.6,202.5z M842.7,295L842.7,295l2.5-1.1C844.3,294.2,843.5,294.6,842.7,295z M887.6,177.5
			c-8.8,0-16,7.2-16,16c0,8.8,7.2,16,16,16c8.8,0,16-7.2,16-16C903.7,184.6,896.5,177.5,887.6,177.5z M887.6,202.5c-4.9,0-9-4-9-9
			c0-4.9,4-9,9-9c4.9,0,9,4,9,9C896.6,198.4,892.6,202.5,887.6,202.5z M887.6,177.5c-8.8,0-16,7.2-16,16c0,8.8,7.2,16,16,16
			c8.8,0,16-7.2,16-16C903.7,184.6,896.5,177.5,887.6,177.5z M887.6,202.5c-4.9,0-9-4-9-9c0-4.9,4-9,9-9c4.9,0,9,4,9,9
			C896.6,198.4,892.6,202.5,887.6,202.5z M887.6,177.5c-8.8,0-16,7.2-16,16c0,8.8,7.2,16,16,16c8.8,0,16-7.2,16-16
			C903.7,184.6,896.5,177.5,887.6,177.5z M887.6,202.5c-4.9,0-9-4-9-9c0-4.9,4-9,9-9c4.9,0,9,4,9,9
			C896.6,198.4,892.6,202.5,887.6,202.5z M887.6,177.5c-8.8,0-16,7.2-16,16c0,8.8,7.2,16,16,16c8.8,0,16-7.2,16-16
			C903.7,184.6,896.5,177.5,887.6,177.5z M887.6,202.5c-4.9,0-9-4-9-9c0-4.9,4-9,9-9c4.9,0,9,4,9,9
			C896.6,198.4,892.6,202.5,887.6,202.5z M887.6,177.5c-8.8,0-16,7.2-16,16c0,8.8,7.2,16,16,16c8.8,0,16-7.2,16-16
			C903.7,184.6,896.5,177.5,887.6,177.5z M887.6,202.5c-4.9,0-9-4-9-9c0-4.9,4-9,9-9c4.9,0,9,4,9,9
			C896.6,198.4,892.6,202.5,887.6,202.5z M887.6,177.5c-8.8,0-16,7.2-16,16c0,8.8,7.2,16,16,16c8.8,0,16-7.2,16-16
			C903.7,184.6,896.5,177.5,887.6,177.5z M887.6,202.5c-4.9,0-9-4-9-9c0-4.9,4-9,9-9c4.9,0,9,4,9,9
			C896.6,198.4,892.6,202.5,887.6,202.5z M887.6,177.5c-8.8,0-16,7.2-16,16c0,8.8,7.2,16,16,16c8.8,0,16-7.2,16-16
			C903.7,184.6,896.5,177.5,887.6,177.5z M887.6,202.5c-4.9,0-9-4-9-9c0-4.9,4-9,9-9c4.9,0,9,4,9,9
			C896.6,198.4,892.6,202.5,887.6,202.5z M786.2,238.5L786.2,238.5c0.4-0.8,0.8-1.7,1.2-2.5L786.2,238.5z M842.7,295L842.7,295
			l2.5-1.1C844.3,294.2,843.5,294.6,842.7,295z M887.6,177.5c-8.8,0-16,7.2-16,16c0,8.8,7.2,16,16,16c8.8,0,16-7.2,16-16
			C903.7,184.6,896.5,177.5,887.6,177.5z M887.6,202.5c-4.9,0-9-4-9-9c0-4.9,4-9,9-9c4.9,0,9,4,9,9
			C896.6,198.4,892.6,202.5,887.6,202.5z M887.6,177.5c-8.8,0-16,7.2-16,16c0,8.8,7.2,16,16,16c8.8,0,16-7.2,16-16
			C903.7,184.6,896.5,177.5,887.6,177.5z M887.6,202.5c-4.9,0-9-4-9-9c0-4.9,4-9,9-9c4.9,0,9,4,9,9
			C896.6,198.4,892.6,202.5,887.6,202.5z M887.6,177.5c-8.8,0-16,7.2-16,16c0,8.8,7.2,16,16,16c8.8,0,16-7.2,16-16
			C903.7,184.6,896.5,177.5,887.6,177.5z M887.6,202.5c-4.9,0-9-4-9-9c0-4.9,4-9,9-9c4.9,0,9,4,9,9
			C896.6,198.4,892.6,202.5,887.6,202.5z M887.6,177.5c-8.8,0-16,7.2-16,16c0,8.8,7.2,16,16,16c8.8,0,16-7.2,16-16
			C903.7,184.6,896.5,177.5,887.6,177.5z M887.6,202.5c-4.9,0-9-4-9-9c0-4.9,4-9,9-9c4.9,0,9,4,9,9
			C896.6,198.4,892.6,202.5,887.6,202.5z M887.6,177.5c-8.8,0-16,7.2-16,16c0,8.8,7.2,16,16,16c8.8,0,16-7.2,16-16
			C903.7,184.6,896.5,177.5,887.6,177.5z M887.6,202.5c-4.9,0-9-4-9-9c0-4.9,4-9,9-9c4.9,0,9,4,9,9
			C896.6,198.4,892.6,202.5,887.6,202.5z M887.6,177.5c-8.8,0-16,7.2-16,16c0,8.8,7.2,16,16,16c8.8,0,16-7.2,16-16
			C903.7,184.6,896.5,177.5,887.6,177.5z M887.6,202.5c-4.9,0-9-4-9-9c0-4.9,4-9,9-9c4.9,0,9,4,9,9
			C896.6,198.4,892.6,202.5,887.6,202.5z"/>
		<path class="st2" d="M849.8,291.6c-1,0.5-2,1-3,1.5L849.8,291.6L849.8,291.6z M789.5,231.3l-1.4,3.1
			C788.6,233.4,789.1,232.3,789.5,231.3L789.5,231.3z"/>
	</g>
	<path class="st2" d="M935.1,146.1c-3.7-3.7-8.6-5.7-13.7-5.7c-0.6,0-1.2,0-1.8,0.1c-0.3,0-0.6,0.1-0.9,0.1
		c-15,1.9-29.6,5.8-43.5,11.5c-1,0.4-1.9,0.8-3,1.3c-0.9,0.4-1.9,0.8-2.8,1.3c-9.8-4-20.3-6.6-31.3-7.5
		c-66-5.3-120.7,51.6-112.8,117.3c1.3,11,4.3,21.4,8.8,31c4,8.7,4.7,18.6,1.8,27.8l-10.5,32.5c0,0.1,0,0.1,0.1,0.1l33-10.8
		c8.6-2.8,18-2.2,26.2,1.6c20,9.5,43.5,12.8,68.1,7.6c39.3-8.4,70.2-39,79-78.2c5.1-22.9,2.7-44.9-5.1-64.1c0.4-0.9,0.8-1.9,1.3-2.8
		c0.5-1.2,0.9-2.1,1.3-3c5.8-13.8,9.6-28.5,11.5-43.4c0.1-0.4,0.1-0.7,0.1-0.9C941.2,155.9,939.2,150.2,935.1,146.1z M766.7,242
		c-0.7,0.3-1.5,0.6-2.2,0.9c-2.6,1.1-5,2.3-7.5,3.8c-0.7,0.4-1.4,0.9-2,1.3c-1.3,0.9-2.7,1.9-3.9,2.9c2.3-13.4,8.7-26.3,19.1-36.7
		c5.4-5.4,11.6-9.8,18.1-13c1-0.5,1.9-0.9,2.9-1.3c0.1-0.1,0.3-0.1,0.4-0.2c2-0.8,4-1.6,6-2.2c0.3-0.1,0.5-0.2,0.7-0.2
		c0.6-0.2,1.1-0.4,1.7-0.5c5.1-1.4,10.2-2.3,15.5-2.5c-10.3,11.2-18.9,23.7-25.8,37.2c-0.5,1-1,2-1.5,3.1l-0.8,1.6l0,0
		c-0.4,0.8-0.8,1.7-1.1,2.5h0C779.6,238.5,773,239.6,766.7,242z M824.8,294.4c-2.6,0.9-5.2,1.7-7.9,2.4c-12.6,3.5-25.5,5.4-38.4,5.8
		c0.2-6.1,0.7-12.3,1.6-18.4c0.2-1.4,0.4-2.7,0.6-4c0.9-5.4,2.1-10.7,3.6-16c0.4-1.3,0.8-2.6,1.2-4c0.4-1.3,0.8-2.6,1.3-3.9
		c1.2-3.6,2.5-7.1,4-10.6c0,0,0,0,0,0l2,0.3c10.8,1.4,20.6,6.3,28.4,14c7.7,7.7,12.6,17.6,14,28.4l0.1,0.4l0.2,1.6c0,0,0,0,0,0
		C831.9,291.9,828.4,293.2,824.8,294.4z M867,311c-10.4,10.4-23.2,16.7-36.7,19.1c8.2-10.2,12.3-22.7,12.3-35.1v0
		c0.8-0.4,1.7-0.8,2.5-1.1l0,0l1.6-0.8c1-0.5,2-1,3-1.5c13.5-6.9,26-15.5,37.2-25.8C886.3,282.2,879.6,298.5,867,311z M933.6,161
		c0,0.2,0,0.4-0.1,0.6c-1.8,14.2-5.5,28.3-11.1,41.7c-0.4,1-0.8,1.9-1.2,2.9c-6.8,15.5-16.1,30.1-28,43.3c-1.8,2-3.7,4-5.7,6
		c-0.3,0.3-0.5,0.5-0.8,0.8c-11.5,11.4-24.4,20.7-38.1,27.9c-2.2,1.2-4.4,2.3-6.6,3.3c-0.3-2.4-0.8-4.8-1.4-7.1
		c-2.5-9.3-7.3-18-14.6-25.3c-7.3-7.3-16-12.1-25.3-14.6c-2.4-0.6-4.7-1.1-7.1-1.4c1-2.2,2.1-4.4,3.3-6.6
		c7.2-13.7,16.5-26.5,27.9-38c0.2-0.3,0.5-0.5,0.8-0.8c2-2,4-3.9,6-5.7c13.2-11.9,27.8-21.2,43.3-28c1-0.4,1.9-0.8,2.9-1.2
		c13.5-5.6,27.5-9.3,41.8-11.1c0.2,0,0.4-0.1,0.6-0.1c0.4,0,0.8-0.1,1.2-0.1c3.2,0,6.3,1.2,8.8,3.6C932.8,153.8,934,157.5,933.6,161
		z"/>
</g>
<g>
	<path class="st0" d="M102.5,769.5c0.4-1.3,0.8-2.6,1.2-4C103.3,766.8,102.9,768.1,102.5,769.5z"/>
	<g>
		<path class="st0" d="M153.4,794c0.1,0.6,0.1,1.1,0.2,1.7c0,0,0,0,0,0L153.4,794z"/>
		<path class="st0" d="M108.9,751C108.9,751,108.9,751,108.9,751c0.7,0.1,1.4,0.2,2,0.3L108.9,751z"/>
		<path class="st0" d="M205.8,682.7c-8.8,0-16,7.2-16,16c0,8.8,7.2,16,16,16c8.8,0,16-7.2,16-16
			C221.8,689.9,214.7,682.7,205.8,682.7z M205.8,707.7c-4.9,0-9-4-9-9c0-4.9,4-9,9-9s9,4,9,9C214.8,703.7,210.8,707.7,205.8,707.7z
			 M205.8,682.7c-8.8,0-16,7.2-16,16c0,8.8,7.2,16,16,16c8.8,0,16-7.2,16-16C221.8,689.9,214.7,682.7,205.8,682.7z M205.8,707.7
			c-4.9,0-9-4-9-9c0-4.9,4-9,9-9s9,4,9,9C214.8,703.7,210.8,707.7,205.8,707.7z M205.8,682.7c-8.8,0-16,7.2-16,16
			c0,8.8,7.2,16,16,16c8.8,0,16-7.2,16-16C221.8,689.9,214.7,682.7,205.8,682.7z M205.8,707.7c-4.9,0-9-4-9-9c0-4.9,4-9,9-9s9,4,9,9
			C214.8,703.7,210.8,707.7,205.8,707.7z M205.8,682.7c-8.8,0-16,7.2-16,16c0,8.8,7.2,16,16,16c8.8,0,16-7.2,16-16
			C221.8,689.9,214.7,682.7,205.8,682.7z M205.8,707.7c-4.9,0-9-4-9-9c0-4.9,4-9,9-9s9,4,9,9C214.8,703.7,210.8,707.7,205.8,707.7z
			 M205.8,682.7c-8.8,0-16,7.2-16,16c0,8.8,7.2,16,16,16c8.8,0,16-7.2,16-16C221.8,689.9,214.7,682.7,205.8,682.7z M205.8,707.7
			c-4.9,0-9-4-9-9c0-4.9,4-9,9-9s9,4,9,9C214.8,703.7,210.8,707.7,205.8,707.7z M205.8,682.7c-8.8,0-16,7.2-16,16
			c0,8.8,7.2,16,16,16c8.8,0,16-7.2,16-16C221.8,689.9,214.7,682.7,205.8,682.7z M205.8,707.7c-4.9,0-9-4-9-9c0-4.9,4-9,9-9s9,4,9,9
			C214.8,703.7,210.8,707.7,205.8,707.7z M205.8,682.7c-8.8,0-16,7.2-16,16c0,8.8,7.2,16,16,16c8.8,0,16-7.2,16-16
			C221.8,689.9,214.7,682.7,205.8,682.7z M205.8,707.7c-4.9,0-9-4-9-9c0-4.9,4-9,9-9s9,4,9,9C214.8,703.7,210.8,707.7,205.8,707.7z
			 M205.8,682.7c-8.8,0-16,7.2-16,16c0,8.8,7.2,16,16,16c8.8,0,16-7.2,16-16C221.8,689.9,214.7,682.7,205.8,682.7z M205.8,707.7
			c-4.9,0-9-4-9-9c0-4.9,4-9,9-9s9,4,9,9C214.8,703.7,210.8,707.7,205.8,707.7z M160.8,800.2L160.8,800.2l2.5-1.1
			C162.5,799.5,161.7,799.9,160.8,800.2z M205.8,682.7c-8.8,0-16,7.2-16,16c0,8.8,7.2,16,16,16c8.8,0,16-7.2,16-16
			C221.8,689.9,214.7,682.7,205.8,682.7z M205.8,707.7c-4.9,0-9-4-9-9c0-4.9,4-9,9-9s9,4,9,9C214.8,703.7,210.8,707.7,205.8,707.7z
			 M205.8,682.7c-8.8,0-16,7.2-16,16c0,8.8,7.2,16,16,16c8.8,0,16-7.2,16-16C221.8,689.9,214.7,682.7,205.8,682.7z M205.8,707.7
			c-4.9,0-9-4-9-9c0-4.9,4-9,9-9s9,4,9,9C214.8,703.7,210.8,707.7,205.8,707.7z M160.8,800.2L160.8,800.2l2.5-1.1
			C162.5,799.5,161.7,799.9,160.8,800.2z M205.8,682.7c-8.8,0-16,7.2-16,16c0,8.8,7.2,16,16,16c8.8,0,16-7.2,16-16
			C221.8,689.9,214.7,682.7,205.8,682.7z M205.8,707.7c-4.9,0-9-4-9-9c0-4.9,4-9,9-9s9,4,9,9C214.8,703.7,210.8,707.7,205.8,707.7z
			 M205.8,682.7c-8.8,0-16,7.2-16,16c0,8.8,7.2,16,16,16c8.8,0,16-7.2,16-16C221.8,689.9,214.7,682.7,205.8,682.7z M205.8,707.7
			c-4.9,0-9-4-9-9c0-4.9,4-9,9-9s9,4,9,9C214.8,703.7,210.8,707.7,205.8,707.7z M160.8,800.2L160.8,800.2l2.5-1.1
			C162.5,799.5,161.7,799.9,160.8,800.2z M205.8,682.7c-8.8,0-16,7.2-16,16c0,8.8,7.2,16,16,16c8.8,0,16-7.2,16-16
			C221.8,689.9,214.7,682.7,205.8,682.7z M205.8,707.7c-4.9,0-9-4-9-9c0-4.9,4-9,9-9s9,4,9,9C214.8,703.7,210.8,707.7,205.8,707.7z
			 M205.8,682.7c-8.8,0-16,7.2-16,16c0,8.8,7.2,16,16,16c8.8,0,16-7.2,16-16C221.8,689.9,214.7,682.7,205.8,682.7z M205.8,707.7
			c-4.9,0-9-4-9-9c0-4.9,4-9,9-9s9,4,9,9C214.8,703.7,210.8,707.7,205.8,707.7z M205.8,682.7c-8.8,0-16,7.2-16,16
			c0,8.8,7.2,16,16,16c8.8,0,16-7.2,16-16C221.8,689.9,214.7,682.7,205.8,682.7z M205.8,707.7c-4.9,0-9-4-9-9c0-4.9,4-9,9-9s9,4,9,9
			C214.8,703.7,210.8,707.7,205.8,707.7z M205.8,682.7c-8.8,0-16,7.2-16,16c0,8.8,7.2,16,16,16c8.8,0,16-7.2,16-16
			C221.8,689.9,214.7,682.7,205.8,682.7z M205.8,707.7c-4.9,0-9-4-9-9c0-4.9,4-9,9-9s9,4,9,9C214.8,703.7,210.8,707.7,205.8,707.7z
			 M205.8,682.7c-8.8,0-16,7.2-16,16c0,8.8,7.2,16,16,16c8.8,0,16-7.2,16-16C221.8,689.9,214.7,682.7,205.8,682.7z M205.8,707.7
			c-4.9,0-9-4-9-9c0-4.9,4-9,9-9s9,4,9,9C214.8,703.7,210.8,707.7,205.8,707.7z M205.8,682.7c-8.8,0-16,7.2-16,16
			c0,8.8,7.2,16,16,16c8.8,0,16-7.2,16-16C221.8,689.9,214.7,682.7,205.8,682.7z M205.8,707.7c-4.9,0-9-4-9-9c0-4.9,4-9,9-9s9,4,9,9
			C214.8,703.7,210.8,707.7,205.8,707.7z M205.8,682.7c-8.8,0-16,7.2-16,16c0,8.8,7.2,16,16,16c8.8,0,16-7.2,16-16
			C221.8,689.9,214.7,682.7,205.8,682.7z M205.8,707.7c-4.9,0-9-4-9-9c0-4.9,4-9,9-9s9,4,9,9C214.8,703.7,210.8,707.7,205.8,707.7z
			 M104.3,743.7L104.3,743.7c0.4-0.8,0.8-1.7,1.2-2.5L104.3,743.7z M160.8,800.2L160.8,800.2l2.5-1.1
			C162.5,799.5,161.7,799.9,160.8,800.2z M205.8,682.7c-8.8,0-16,7.2-16,16c0,8.8,7.2,16,16,16c8.8,0,16-7.2,16-16
			C221.8,689.9,214.7,682.7,205.8,682.7z M205.8,707.7c-4.9,0-9-4-9-9c0-4.9,4-9,9-9s9,4,9,9C214.8,703.7,210.8,707.7,205.8,707.7z
			 M205.8,682.7c-8.8,0-16,7.2-16,16c0,8.8,7.2,16,16,16c8.8,0,16-7.2,16-16C221.8,689.9,214.7,682.7,205.8,682.7z M205.8,707.7
			c-4.9,0-9-4-9-9c0-4.9,4-9,9-9s9,4,9,9C214.8,703.7,210.8,707.7,205.8,707.7z M205.8,682.7c-8.8,0-16,7.2-16,16
			c0,8.8,7.2,16,16,16c8.8,0,16-7.2,16-16C221.8,689.9,214.7,682.7,205.8,682.7z M205.8,707.7c-4.9,0-9-4-9-9c0-4.9,4-9,9-9s9,4,9,9
			C214.8,703.7,210.8,707.7,205.8,707.7z M205.8,682.7c-8.8,0-16,7.2-16,16c0,8.8,7.2,16,16,16c8.8,0,16-7.2,16-16
			C221.8,689.9,214.7,682.7,205.8,682.7z M205.8,707.7c-4.9,0-9-4-9-9c0-4.9,4-9,9-9s9,4,9,9C214.8,703.7,210.8,707.7,205.8,707.7z
			 M205.8,682.7c-8.8,0-16,7.2-16,16c0,8.8,7.2,16,16,16c8.8,0,16-7.2,16-16C221.8,689.9,214.7,682.7,205.8,682.7z M205.8,707.7
			c-4.9,0-9-4-9-9c0-4.9,4-9,9-9s9,4,9,9C214.8,703.7,210.8,707.7,205.8,707.7z M205.8,682.7c-8.8,0-16,7.2-16,16
			c0,8.8,7.2,16,16,16c8.8,0,16-7.2,16-16C221.8,689.9,214.7,682.7,205.8,682.7z M205.8,707.7c-4.9,0-9-4-9-9c0-4.9,4-9,9-9s9,4,9,9
			C214.8,703.7,210.8,707.7,205.8,707.7z"/>
		<path class="st0" d="M168,796.8c-1,0.5-2,1-3,1.5L168,796.8L168,796.8z M107.7,736.6l-1.4,3.1
			C106.8,738.6,107.3,737.6,107.7,736.6L107.7,736.6z"/>
	</g>
	<path class="st0" d="M253.2,651.4c-3.7-3.7-8.6-5.7-13.7-5.7c-0.6,0-1.2,0-1.8,0.1c-0.3,0-0.6,0.1-0.9,0.1
		c-15,1.9-29.6,5.8-43.5,11.5c-1,0.4-1.9,0.8-3,1.3c-0.9,0.4-1.9,0.8-2.8,1.3c-9.8-4-20.3-6.6-31.3-7.5
		c-66-5.3-120.7,51.6-112.8,117.3c1.3,11,4.3,21.4,8.8,31c4,8.7,4.7,18.6,1.8,27.8L43.4,861c0,0.1,0,0.1,0.1,0.1l33-10.8
		c8.6-2.8,18-2.2,26.2,1.6c20,9.5,43.5,12.8,68.1,7.6c39.3-8.4,70.2-39,79-78.2c5.1-22.9,2.7-44.9-5.1-64.1c0.4-0.9,0.8-1.9,1.3-2.8
		c0.5-1.2,0.9-2.1,1.3-3c5.8-13.8,9.6-28.5,11.5-43.4c0.1-0.4,0.1-0.7,0.1-0.9C259.4,661.1,257.3,655.5,253.2,651.4z M84.9,747.2
		c-0.7,0.3-1.5,0.6-2.2,0.9c-2.6,1.1-5,2.3-7.5,3.8c-0.7,0.4-1.4,0.9-2,1.3c-1.3,0.9-2.7,1.9-3.9,2.9c2.3-13.4,8.7-26.3,19.1-36.7
		c5.4-5.4,11.6-9.8,18.1-13c1-0.5,1.9-0.9,2.9-1.3c0.1-0.1,0.3-0.1,0.4-0.2c2-0.8,4-1.6,6-2.2c0.3-0.1,0.5-0.2,0.7-0.2
		c0.6-0.2,1.1-0.4,1.7-0.5c5.1-1.4,10.2-2.3,15.5-2.5c-10.3,11.2-18.9,23.7-25.8,37.2c-0.5,1-1,2-1.5,3.1l-0.8,1.6l0,0
		c-0.4,0.8-0.8,1.7-1.1,2.5h0C97.7,743.8,91.1,744.9,84.9,747.2z M143,799.7c-2.6,0.9-5.2,1.7-7.9,2.4c-12.6,3.5-25.5,5.4-38.4,5.8
		c0.2-6.1,0.7-12.3,1.6-18.4c0.2-1.4,0.4-2.7,0.6-4c0.9-5.4,2.1-10.7,3.6-16c0.4-1.3,0.8-2.6,1.2-4c0.4-1.3,0.8-2.6,1.3-3.9
		c1.2-3.6,2.5-7.1,4-10.6c0,0,0,0,0,0l2,0.3c10.8,1.4,20.6,6.3,28.4,14c7.7,7.7,12.6,17.6,14,28.4l0.1,0.4l0.2,1.6c0,0,0,0,0,0
		C150.1,797.1,146.5,798.5,143,799.7z M185.2,816.3c-10.4,10.4-23.2,16.7-36.7,19.1c8.2-10.2,12.3-22.7,12.3-35.1v0
		c0.8-0.4,1.7-0.8,2.5-1.1l0,0l1.6-0.8c1-0.5,2-1,3-1.5c13.5-6.9,26-15.5,37.2-25.8C204.4,787.5,197.8,803.7,185.2,816.3z
		 M251.8,666.3c0,0.2,0,0.4-0.1,0.6c-1.8,14.2-5.5,28.3-11.1,41.7c-0.4,1-0.8,1.9-1.2,2.9c-6.8,15.5-16.1,30.1-28,43.3
		c-1.8,2-3.7,4-5.7,6c-0.3,0.3-0.5,0.5-0.8,0.8c-11.5,11.4-24.4,20.7-38.1,27.9c-2.2,1.2-4.4,2.3-6.6,3.3c-0.3-2.4-0.8-4.8-1.4-7.1
		c-2.5-9.3-7.3-18-14.6-25.3c-7.3-7.3-16-12.1-25.3-14.6c-2.4-0.6-4.7-1.1-7.1-1.4c1-2.2,2.1-4.4,3.3-6.6
		c7.2-13.7,16.5-26.5,27.9-38c0.2-0.3,0.5-0.5,0.8-0.8c2-2,4-3.9,6-5.7c13.2-11.9,27.8-21.2,43.3-28c1-0.4,1.9-0.8,2.9-1.2
		c13.5-5.6,27.5-9.3,41.8-11.1c0.2,0,0.4-0.1,0.6-0.1c0.4,0,0.8-0.1,1.2-0.1c3.2,0,6.3,1.2,8.8,3.6C251,659,252.1,662.7,251.8,666.3
		z"/>
	<g>
		<path class="st0" d="M350.6,761.5L340.6,747H340h-10.5v14.5h-12.1v-52.1H340c4.6,0,8.6,0.8,12,2.3c3.4,1.5,6,3.7,7.9,6.6
			c1.8,2.8,2.8,6.2,2.8,10.1c0,3.9-0.9,7.2-2.8,10c-1.9,2.8-4.5,5-7.9,6.4l11.7,16.8H350.6z M347.6,721.6c-1.9-1.6-4.6-2.3-8.3-2.3
			h-9.8v18.2h9.8c3.6,0,6.4-0.8,8.3-2.4c1.9-1.6,2.8-3.8,2.8-6.7C350.4,725.4,349.4,723.1,347.6,721.6z"/>
		<path class="st0" d="M379,759.5c-3.3-1.8-6-4.2-7.9-7.3c-1.9-3.1-2.8-6.7-2.8-10.6c0-4,0.9-7.5,2.8-10.6c1.9-3.1,4.5-5.6,7.9-7.3
			c3.4-1.8,7.1-2.6,11.4-2.6c4.2,0,8,0.9,11.3,2.6c3.3,1.8,5.9,4.2,7.8,7.3c1.9,3.1,2.8,6.7,2.8,10.6c0,4-0.9,7.5-2.8,10.6
			c-1.9,3.1-4.5,5.6-7.8,7.3c-3.3,1.8-7.1,2.6-11.3,2.6C386.2,762.1,382.4,761.2,379,759.5z M397.7,749.6c1.9-2,2.9-4.7,2.9-8.1
			c0-3.4-1-6.1-2.9-8.1s-4.4-3-7.3-3c-3,0-5.4,1-7.4,3c-1.9,2-2.9,4.7-2.9,8.1c0,3.4,1,6.1,2.9,8.1c1.9,2,4.4,3,7.4,3
			C393.4,752.6,395.8,751.6,397.7,749.6z"/>
		<path class="st0" d="M427.9,759.5c-3.4-1.8-6.1-4.2-8-7.3c-1.9-3.1-2.9-6.7-2.9-10.6c0-4,1-7.5,2.9-10.6c1.9-3.1,4.6-5.6,8-7.3
			c3.4-1.8,7.2-2.6,11.5-2.6c4.2,0,7.9,0.9,11.1,2.6c3.2,1.8,5.4,4.3,6.9,7.6l-9,4.8c-2.1-3.7-5.1-5.5-9-5.5c-3,0-5.5,1-7.5,3
			c-2,2-3,4.7-3,8.1c0,3.4,1,6.1,3,8.1c2,2,4.5,3,7.5,3c4,0,7-1.8,9-5.5l9,4.9c-1.4,3.2-3.7,5.7-6.9,7.4c-3.2,1.8-6.8,2.7-11.1,2.7
			C435.2,762.1,431.3,761.2,427.9,759.5z"/>
		<path class="st0" d="M481,745.8l-5.6,5.5v10.2h-11.6v-55.3h11.6v31.3l17-16.1h13.9l-16.7,17l18.2,23.1h-14.1L481,745.8z"/>
		<path class="st0" d="M550.2,744.7h-30.3c0.5,2.5,1.8,4.4,3.9,5.9c2,1.4,4.6,2.2,7.6,2.2c2.1,0,3.9-0.3,5.5-0.9
			c1.6-0.6,3.1-1.6,4.5-2.9l6.2,6.7c-3.8,4.3-9.3,6.5-16.5,6.5c-4.5,0-8.5-0.9-12-2.6c-3.5-1.8-6.2-4.2-8-7.3
			c-1.9-3.1-2.8-6.7-2.8-10.6c0-3.9,0.9-7.5,2.8-10.6c1.9-3.2,4.4-5.6,7.7-7.4c3.3-1.8,6.9-2.6,10.9-2.6c3.9,0,7.5,0.8,10.6,2.5
			c3.2,1.7,5.7,4.1,7.5,7.3c1.8,3.2,2.7,6.8,2.7,11C550.5,741.8,550.4,742.8,550.2,744.7z M523.1,731.9c-1.8,1.5-2.9,3.5-3.3,6.1
			h19.7c-0.4-2.5-1.5-4.6-3.3-6.1c-1.8-1.5-4-2.3-6.6-2.3C527.1,729.6,524.9,730.4,523.1,731.9z"/>
		<path class="st0" d="M584.1,759.6c-1.1,0.8-2.5,1.5-4.2,1.9c-1.7,0.4-3.4,0.6-5.3,0.6c-4.8,0-8.5-1.2-11.1-3.6
			c-2.6-2.4-3.9-6-3.9-10.7v-16.5h-6.2v-8.9h6.2v-9.8h11.6v9.8h10v8.9h-10v16.3c0,1.7,0.4,3,1.3,3.9c0.9,0.9,2.1,1.4,3.7,1.4
			c1.8,0,3.4-0.5,4.7-1.5L584.1,759.6z"/>
	</g>
	<g>
		<path class="st0" d="M330.7,827.6c-4.1-2.3-7.4-5.4-9.8-9.5c-2.4-4-3.5-8.6-3.5-13.6c0-5,1.2-9.5,3.5-13.6c2.4-4,5.6-7.2,9.8-9.5
			c4.2-2.3,8.8-3.4,14-3.4c3.9,0,7.4,0.6,10.7,1.9c3.3,1.3,6.1,3.2,8.3,5.7l-3.5,3.5c-4.1-4.1-9.2-6.2-15.4-6.2
			c-4.1,0-7.9,0.9-11.2,2.8c-3.4,1.9-6,4.5-7.9,7.7c-1.9,3.3-2.9,7-2.9,11c0,4.1,1,7.7,2.9,11c1.9,3.3,4.6,5.9,7.9,7.7
			c3.4,1.9,7.1,2.8,11.2,2.8c6.3,0,11.4-2.1,15.4-6.3l3.5,3.5c-2.3,2.5-5.1,4.4-8.4,5.7c-3.3,1.3-6.9,2-10.8,2
			C339.5,831.1,334.8,829.9,330.7,827.6z"/>
		<path class="st0" d="M406.1,795.4c2.9,2.9,4.4,7,4.4,12.5v22.7h-5.3v-22.2c0-4.1-1-7.2-3.1-9.3c-2-2.1-4.9-3.2-8.7-3.2
			c-4.2,0-7.6,1.3-10,3.8c-2.5,2.5-3.7,6-3.7,10.4v20.6h-5.3v-55.3h5.3v22.9c1.4-2.3,3.4-4,6-5.3c2.5-1.2,5.4-1.9,8.7-1.9
			C399.3,791.1,403.2,792.6,406.1,795.4z"/>
		<path class="st0" d="M450.3,795c2.7,2.6,4.1,6.3,4.1,11.4v24.3h-5.1v-6.1c-1.2,2-2.9,3.6-5.3,4.8c-2.3,1.1-5.1,1.7-8.2,1.7
			c-4.4,0-7.8-1-10.4-3.1c-2.6-2.1-3.9-4.8-3.9-8.3c0-3.3,1.2-6,3.6-8c2.4-2,6.2-3.1,11.5-3.1h12.4v-2.4c0-3.4-0.9-5.9-2.8-7.7
			c-1.9-1.8-4.6-2.6-8.3-2.6c-2.5,0-4.9,0.4-7.1,1.2c-2.3,0.8-4.2,1.9-5.9,3.4l-2.4-3.9c2-1.7,4.4-3,7.1-3.9
			c2.8-0.9,5.7-1.4,8.8-1.4C443.7,791.1,447.6,792.4,450.3,795z M444.4,824.8c2.1-1.4,3.7-3.3,4.8-5.9v-6.4h-12.3
			c-6.7,0-10.1,2.3-10.1,7c0,2.3,0.9,4.1,2.6,5.4c1.7,1.3,4.2,2,7.3,2C439.7,826.8,442.2,826.1,444.4,824.8z"/>
		<path class="st0" d="M489.4,828.2c-1,0.9-2.2,1.6-3.7,2c-1.5,0.5-3,0.7-4.6,0.7c-3.7,0-6.5-1-8.5-3c-2-2-3-4.8-3-8.4v-23.7h-7
			v-4.5h7v-8.6h5.3v8.6h11.9v4.5H475v23.4c0,2.3,0.6,4.1,1.7,5.3c1.2,1.2,2.8,1.8,5,1.8c1.1,0,2.1-0.2,3.2-0.5
			c1-0.3,1.9-0.8,2.6-1.5L489.4,828.2z"/>
	</g>
</g>
<g>
	<g>
		<path class="st0" d="M818.5,791.2c0.1,0.6,0.1,1.1,0.2,1.7c0,0,0,0,0,0L818.5,791.2z"/>
		<path class="st0" d="M774.1,748.1C774.1,748.1,774.1,748.1,774.1,748.1c0.7,0.1,1.4,0.2,2,0.3L774.1,748.1z"/>
		<path class="st0" d="M871,679.9c-8.8,0-16,7.2-16,16c0,8.8,7.2,16,16,16c8.8,0,16-7.2,16-16C887,687,879.8,679.9,871,679.9z
			 M871,704.8c-4.9,0-9-4-9-9c0-4.9,4-9,9-9s9,4,9,9C879.9,700.8,875.9,704.8,871,704.8z M871,679.9c-8.8,0-16,7.2-16,16
			c0,8.8,7.2,16,16,16c8.8,0,16-7.2,16-16C887,687,879.8,679.9,871,679.9z M871,704.8c-4.9,0-9-4-9-9c0-4.9,4-9,9-9s9,4,9,9
			C879.9,700.8,875.9,704.8,871,704.8z M871,679.9c-8.8,0-16,7.2-16,16c0,8.8,7.2,16,16,16c8.8,0,16-7.2,16-16
			C887,687,879.8,679.9,871,679.9z M871,704.8c-4.9,0-9-4-9-9c0-4.9,4-9,9-9s9,4,9,9C879.9,700.8,875.9,704.8,871,704.8z M871,679.9
			c-8.8,0-16,7.2-16,16c0,8.8,7.2,16,16,16c8.8,0,16-7.2,16-16C887,687,879.8,679.9,871,679.9z M871,704.8c-4.9,0-9-4-9-9
			c0-4.9,4-9,9-9s9,4,9,9C879.9,700.8,875.9,704.8,871,704.8z M871,679.9c-8.8,0-16,7.2-16,16c0,8.8,7.2,16,16,16
			c8.8,0,16-7.2,16-16C887,687,879.8,679.9,871,679.9z M871,704.8c-4.9,0-9-4-9-9c0-4.9,4-9,9-9s9,4,9,9
			C879.9,700.8,875.9,704.8,871,704.8z M871,679.9c-8.8,0-16,7.2-16,16c0,8.8,7.2,16,16,16c8.8,0,16-7.2,16-16
			C887,687,879.8,679.9,871,679.9z M871,704.8c-4.9,0-9-4-9-9c0-4.9,4-9,9-9s9,4,9,9C879.9,700.8,875.9,704.8,871,704.8z M871,679.9
			c-8.8,0-16,7.2-16,16c0,8.8,7.2,16,16,16c8.8,0,16-7.2,16-16C887,687,879.8,679.9,871,679.9z M871,704.8c-4.9,0-9-4-9-9
			c0-4.9,4-9,9-9s9,4,9,9C879.9,700.8,875.9,704.8,871,704.8z M871,679.9c-8.8,0-16,7.2-16,16c0,8.8,7.2,16,16,16
			c8.8,0,16-7.2,16-16C887,687,879.8,679.9,871,679.9z M871,704.8c-4.9,0-9-4-9-9c0-4.9,4-9,9-9s9,4,9,9
			C879.9,700.8,875.9,704.8,871,704.8z M826,797.4L826,797.4l2.5-1.1C827.7,796.6,826.8,797,826,797.4z M871,679.9
			c-8.8,0-16,7.2-16,16c0,8.8,7.2,16,16,16c8.8,0,16-7.2,16-16C887,687,879.8,679.9,871,679.9z M871,704.8c-4.9,0-9-4-9-9
			c0-4.9,4-9,9-9s9,4,9,9C879.9,700.8,875.9,704.8,871,704.8z M871,679.9c-8.8,0-16,7.2-16,16c0,8.8,7.2,16,16,16
			c8.8,0,16-7.2,16-16C887,687,879.8,679.9,871,679.9z M871,704.8c-4.9,0-9-4-9-9c0-4.9,4-9,9-9s9,4,9,9
			C879.9,700.8,875.9,704.8,871,704.8z M826,797.4L826,797.4l2.5-1.1C827.7,796.6,826.8,797,826,797.4z M871,679.9
			c-8.8,0-16,7.2-16,16c0,8.8,7.2,16,16,16c8.8,0,16-7.2,16-16C887,687,879.8,679.9,871,679.9z M871,704.8c-4.9,0-9-4-9-9
			c0-4.9,4-9,9-9s9,4,9,9C879.9,700.8,875.9,704.8,871,704.8z M871,679.9c-8.8,0-16,7.2-16,16c0,8.8,7.2,16,16,16
			c8.8,0,16-7.2,16-16C887,687,879.8,679.9,871,679.9z M871,704.8c-4.9,0-9-4-9-9c0-4.9,4-9,9-9s9,4,9,9
			C879.9,700.8,875.9,704.8,871,704.8z M826,797.4L826,797.4l2.5-1.1C827.7,796.6,826.8,797,826,797.4z M871,679.9
			c-8.8,0-16,7.2-16,16c0,8.8,7.2,16,16,16c8.8,0,16-7.2,16-16C887,687,879.8,679.9,871,679.9z M871,704.8c-4.9,0-9-4-9-9
			c0-4.9,4-9,9-9s9,4,9,9C879.9,700.8,875.9,704.8,871,704.8z M871,679.9c-8.8,0-16,7.2-16,16c0,8.8,7.2,16,16,16
			c8.8,0,16-7.2,16-16C887,687,879.8,679.9,871,679.9z M871,704.8c-4.9,0-9-4-9-9c0-4.9,4-9,9-9s9,4,9,9
			C879.9,700.8,875.9,704.8,871,704.8z M871,679.9c-8.8,0-16,7.2-16,16c0,8.8,7.2,16,16,16c8.8,0,16-7.2,16-16
			C887,687,879.8,679.9,871,679.9z M871,704.8c-4.9,0-9-4-9-9c0-4.9,4-9,9-9s9,4,9,9C879.9,700.8,875.9,704.8,871,704.8z M871,679.9
			c-8.8,0-16,7.2-16,16c0,8.8,7.2,16,16,16c8.8,0,16-7.2,16-16C887,687,879.8,679.9,871,679.9z M871,704.8c-4.9,0-9-4-9-9
			c0-4.9,4-9,9-9s9,4,9,9C879.9,700.8,875.9,704.8,871,704.8z M871,679.9c-8.8,0-16,7.2-16,16c0,8.8,7.2,16,16,16
			c8.8,0,16-7.2,16-16C887,687,879.8,679.9,871,679.9z M871,704.8c-4.9,0-9-4-9-9c0-4.9,4-9,9-9s9,4,9,9
			C879.9,700.8,875.9,704.8,871,704.8z M871,679.9c-8.8,0-16,7.2-16,16c0,8.8,7.2,16,16,16c8.8,0,16-7.2,16-16
			C887,687,879.8,679.9,871,679.9z M871,704.8c-4.9,0-9-4-9-9c0-4.9,4-9,9-9s9,4,9,9C879.9,700.8,875.9,704.8,871,704.8z M871,679.9
			c-8.8,0-16,7.2-16,16c0,8.8,7.2,16,16,16c8.8,0,16-7.2,16-16C887,687,879.8,679.9,871,679.9z M871,704.8c-4.9,0-9-4-9-9
			c0-4.9,4-9,9-9s9,4,9,9C879.9,700.8,875.9,704.8,871,704.8z M769.5,740.9L769.5,740.9c0.4-0.8,0.8-1.7,1.2-2.5L769.5,740.9z
			 M826,797.4L826,797.4l2.5-1.1C827.7,796.6,826.8,797,826,797.4z M871,679.9c-8.8,0-16,7.2-16,16c0,8.8,7.2,16,16,16
			c8.8,0,16-7.2,16-16C887,687,879.8,679.9,871,679.9z M871,704.8c-4.9,0-9-4-9-9c0-4.9,4-9,9-9s9,4,9,9
			C879.9,700.8,875.9,704.8,871,704.8z M871,679.9c-8.8,0-16,7.2-16,16c0,8.8,7.2,16,16,16c8.8,0,16-7.2,16-16
			C887,687,879.8,679.9,871,679.9z M871,704.8c-4.9,0-9-4-9-9c0-4.9,4-9,9-9s9,4,9,9C879.9,700.8,875.9,704.8,871,704.8z M871,679.9
			c-8.8,0-16,7.2-16,16c0,8.8,7.2,16,16,16c8.8,0,16-7.2,16-16C887,687,879.8,679.9,871,679.9z M871,704.8c-4.9,0-9-4-9-9
			c0-4.9,4-9,9-9s9,4,9,9C879.9,700.8,875.9,704.8,871,704.8z M871,679.9c-8.8,0-16,7.2-16,16c0,8.8,7.2,16,16,16
			c8.8,0,16-7.2,16-16C887,687,879.8,679.9,871,679.9z M871,704.8c-4.9,0-9-4-9-9c0-4.9,4-9,9-9s9,4,9,9
			C879.9,700.8,875.9,704.8,871,704.8z M871,679.9c-8.8,0-16,7.2-16,16c0,8.8,7.2,16,16,16c8.8,0,16-7.2,16-16
			C887,687,879.8,679.9,871,679.9z M871,704.8c-4.9,0-9-4-9-9c0-4.9,4-9,9-9s9,4,9,9C879.9,700.8,875.9,704.8,871,704.8z M871,679.9
			c-8.8,0-16,7.2-16,16c0,8.8,7.2,16,16,16c8.8,0,16-7.2,16-16C887,687,879.8,679.9,871,679.9z M871,704.8c-4.9,0-9-4-9-9
			c0-4.9,4-9,9-9s9,4,9,9C879.9,700.8,875.9,704.8,871,704.8z"/>
		<path class="st0" d="M833.1,794c-1,0.5-2,1-3,1.5L833.1,794L833.1,794z M772.9,733.7l-1.4,3.1
			C771.9,735.8,772.4,734.7,772.9,733.7L772.9,733.7z"/>
	</g>
	<path class="st0" d="M918.4,648.5c-3.7-3.7-8.6-5.7-13.7-5.7c-0.6,0-1.2,0-1.8,0.1c-0.3,0-0.6,0.1-0.9,0.1
		c-15,1.9-29.6,5.8-43.5,11.5c-1,0.4-1.9,0.8-3,1.3c-0.9,0.4-1.9,0.8-2.8,1.3c-9.8-4-20.3-6.6-31.3-7.5
		c-66-5.3-120.7,51.6-112.8,117.3c1.3,11,4.3,21.4,8.8,31c4,8.7,4.7,18.6,1.8,27.8l-10.5,32.5c0,0.1,0,0.1,0.1,0.1l33-10.8
		c8.6-2.8,18-2.2,26.2,1.6c20,9.5,43.5,12.8,68.1,7.6c39.3-8.4,70.2-39,79-78.2c5.1-22.9,2.7-44.9-5.1-64.1c0.4-0.9,0.8-1.9,1.3-2.8
		c0.5-1.2,0.9-2.1,1.3-3c5.8-13.8,9.6-28.5,11.5-43.4c0.1-0.4,0.1-0.7,0.1-0.9C924.5,658.3,922.5,652.6,918.4,648.5z M750,744.3
		c-0.7,0.3-1.5,0.6-2.2,0.9c-2.6,1.1-5,2.3-7.5,3.8c-0.7,0.4-1.4,0.9-2,1.3c-1.3,0.9-2.7,1.9-3.9,2.9c2.3-13.4,8.7-26.3,19.1-36.7
		c5.4-5.4,11.6-9.8,18.1-13c1-0.5,1.9-0.9,2.9-1.3c0.1-0.1,0.3-0.1,0.4-0.2c2-0.8,4-1.6,6-2.2c0.3-0.1,0.5-0.2,0.7-0.2
		c0.6-0.2,1.1-0.4,1.7-0.5c5.1-1.4,10.2-2.3,15.5-2.5c-10.3,11.2-18.9,23.7-25.8,37.2c-0.5,1-1,2-1.5,3.1l-0.8,1.6l0,0
		c-0.4,0.8-0.8,1.7-1.1,2.5h0C762.9,740.9,756.3,742,750,744.3z M808.1,796.8c-2.6,0.9-5.2,1.7-7.9,2.4c-12.6,3.5-25.5,5.4-38.4,5.8
		c0.2-6.1,0.7-12.3,1.6-18.4c0.2-1.4,0.4-2.7,0.6-4c0.9-5.4,2.1-10.7,3.6-16c0.4-1.3,0.8-2.6,1.2-4c0.4-1.3,0.8-2.6,1.3-3.9
		c1.2-3.6,2.5-7.1,4-10.6c0,0,0,0,0,0l2,0.3c10.8,1.4,20.6,6.3,28.4,14c7.7,7.7,12.6,17.6,14,28.4l0.1,0.4l0.2,1.6c0,0,0,0,0,0
		C815.2,794.3,811.7,795.6,808.1,796.8z M850.4,813.4c-10.4,10.4-23.2,16.7-36.7,19.1c8.2-10.2,12.3-22.7,12.3-35.1v0
		c0.8-0.4,1.7-0.8,2.5-1.1l0,0l1.6-0.8c1-0.5,2-1,3-1.5c13.5-6.9,26-15.5,37.2-25.8C869.6,784.6,862.9,800.8,850.4,813.4z
		 M917,663.4c0,0.2,0,0.4-0.1,0.6c-1.8,14.2-5.5,28.3-11.1,41.7c-0.4,1-0.8,1.9-1.2,2.9c-6.8,15.5-16.1,30.1-28,43.3
		c-1.8,2-3.7,4-5.7,6c-0.3,0.3-0.5,0.5-0.8,0.8c-11.5,11.4-24.4,20.7-38.1,27.9c-2.2,1.2-4.4,2.3-6.6,3.3c-0.3-2.4-0.8-4.8-1.4-7.1
		c-2.5-9.3-7.3-18-14.6-25.3c-7.3-7.3-16-12.1-25.3-14.6c-2.4-0.6-4.7-1.1-7.1-1.4c1-2.2,2.1-4.4,3.3-6.6
		c7.2-13.7,16.5-26.5,27.9-38c0.2-0.3,0.5-0.5,0.8-0.8c2-2,4-3.9,6-5.7c13.2-11.9,27.8-21.2,43.3-28c1-0.4,1.9-0.8,2.9-1.2
		c13.5-5.6,27.5-9.3,41.8-11.1c0.2,0,0.4-0.1,0.6-0.1c0.4,0,0.8-0.1,1.2-0.1c3.2,0,6.3,1.2,8.8,3.6
		C916.1,656.2,917.3,659.8,917,663.4z"/>
</g>
</svg>
