<?xml version="1.0" encoding="utf-8"?>
<!-- Generator: Adobe Illustrator 21.0.2, SVG Export Plug-In . SVG Version: 6.00 Build 0)  -->
<svg version="1.1" id="Layer_1" xmlns="http://www.w3.org/2000/svg" xmlns:xlink="http://www.w3.org/1999/xlink" x="0px" y="0px"
	 viewBox="0 0 1000 1000" style="enable-background:new 0 0 1000 1000;" xml:space="preserve">
<style type="text/css">
	.st0{fill:url(#SVGID_1_);}
	.st1{fill:url(#SVGID_2_);}
	.st2{fill:url(#SVGID_3_);}
	.st3{fill:url(#SVGID_4_);}
	.st4{fill:url(#SVGID_5_);}
	.st5{fill:url(#SVGID_6_);}
	.st6{fill:url(#SVGID_7_);}
	.st7{fill:url(#SVGID_8_);}
	.st8{fill:url(#SVGID_9_);}
	.st9{fill:url(#SVGID_10_);}
	.st10{fill:url(#SVGID_11_);}
	.st11{fill:url(#SVGID_12_);}
	.st12{fill:url(#SVGID_13_);}
	.st13{fill:url(#SVGID_14_);}
	.st14{fill:url(#SVGID_15_);}
	.st15{fill:url(#SVGID_16_);}
	.st16{fill:url(#SVGID_17_);}
	.st17{fill:url(#SVGID_18_);}
	.st18{fill:url(#SVGID_19_);}
	.st19{fill:url(#SVGID_20_);}
	.st20{fill:url(#SVGID_21_);}
	.st21{fill:url(#SVGID_22_);}
	.st22{fill:url(#SVGID_23_);}
	.st23{fill:url(#SVGID_24_);}
	.st24{fill:url(#SVGID_25_);}
	.st25{fill:url(#SVGID_26_);}
	.st26{fill:url(#SVGID_27_);}
	.st27{fill:url(#SVGID_28_);}
	.st28{fill:url(#SVGID_29_);}
	.st29{fill:url(#SVGID_30_);}
	.st30{fill:url(#SVGID_31_);}
	.st31{fill:url(#SVGID_32_);}
</style>
<g>
	<g>
		<linearGradient id="SVGID_1_" gradientUnits="userSpaceOnUse" x1="223.6287" y1="183.0243" x2="304.9523" y2="183.0243">
			<stop  offset="0" style="stop-color:#FEF0EB"/>
			<stop  offset="0.4988" style="stop-color:#D4E8F2"/>
			<stop  offset="1" style="stop-color:#ADE0F8"/>
		</linearGradient>
		<path class="st0" d="M231.1,185.6c0.5-1.7,1-3.4,1.5-5.1C232.1,182.2,231.6,183.9,231.1,185.6z"/>
		<linearGradient id="SVGID_2_" gradientUnits="userSpaceOnUse" x1="391.3909" y1="137.5564" x2="319.4285" y2="232.8912">
			<stop  offset="0" style="stop-color:#488BCA"/>
			<stop  offset="1" style="stop-color:#AEDAF4"/>
		</linearGradient>
		<path class="st1" d="M289.9,269.7c17.2-3,33.6-11.1,46.8-24.3c19.2-19.2,27.6-45,25.3-70c-17.1,16.9-36.4,30.2-57.1,39.9
			C307.5,234.2,302.5,254,289.9,269.7z"/>
		<linearGradient id="SVGID_3_" gradientUnits="userSpaceOnUse" x1="315.1666" y1="70.6966" x2="220.4469" y2="142.659">
			<stop  offset="0" style="stop-color:#488BCA"/>
			<stop  offset="1" style="stop-color:#AEDAF4"/>
		</linearGradient>
		<path class="st2" d="M212.9,121.5c-13.2,13.2-21.4,29.7-24.3,46.8c15.7-12.6,35.5-17.6,54.5-15.1c9.7-20.6,23-39.9,39.9-57
			C257.9,94,232.1,102.4,212.9,121.5z"/>
		<linearGradient id="SVGID_4_" gradientUnits="userSpaceOnUse" x1="274.6411" y1="186.7069" x2="414.3614" y2="38.254">
			<stop  offset="0" style="stop-color:#488BCA"/>
			<stop  offset="1" style="stop-color:#AEDAF4"/>
		</linearGradient>
		<path class="st3" d="M417.3,41c-3.5-3.5-8.2-5-12.7-4.6c-0.3,0-0.5,0.1-0.8,0.1c-18.2,2.3-36.2,7-53.3,14.1
			c-1.2,0.5-2.5,1-3.7,1.6c-22.8,10-44.2,24.4-62.9,43.1c-0.3,0.3-0.7,0.7-1,1c-16.9,17.1-30.2,36.4-39.9,57
			c15.1,2,29.8,8.8,41.4,20.5c11.6,11.6,18.5,26.3,20.5,41.4c20.6-9.7,39.9-23,57.1-39.9c0.3-0.3,0.7-0.6,1-1
			c18.7-18.7,33-40.1,43.1-62.9c0.5-1.2,1.1-2.5,1.6-3.7c7.1-17.2,11.8-35.1,14.1-53.3c0-0.3,0.1-0.5,0.1-0.8
			C422.3,49.2,420.8,44.5,417.3,41z M363.1,115.6c-11.3,0-20.5-9.2-20.5-20.5c0-11.3,9.2-20.5,20.5-20.5c11.3,0,20.5,9.2,20.5,20.5
			C383.5,106.5,374.4,115.6,363.1,115.6z"/>
		<linearGradient id="SVGID_5_" gradientUnits="userSpaceOnUse" x1="222.8368" y1="235.4538" x2="284.8092" y2="173.4814">
			<stop  offset="0" style="stop-color:#488BCA"/>
			<stop  offset="1" style="stop-color:#AEDAF4"/>
		</linearGradient>
		<path class="st4" d="M243.1,153.3c-3.4,7.2-6.4,14.6-8.9,22.1c-0.6,1.7-1.1,3.3-1.6,5c-0.5,1.7-1,3.4-1.5,5.1
			c-1.9,6.8-3.4,13.6-4.6,20.5c-0.3,1.7-0.6,3.4-0.8,5.2c-1.1,7.8-1.8,15.6-2.1,23.4c16.5-0.5,33-3,49.1-7.5c3.4-0.9,6.7-2,10.1-3.1
			c7.5-2.5,14.9-5.5,22.1-8.9c-2-15.1-8.8-29.8-20.5-41.4C272.8,162.2,258.2,155.3,243.1,153.3z"/>
		<linearGradient id="SVGID_6_" gradientUnits="userSpaceOnUse" x1="157.7501" y1="301.1449" x2="415.2962" y2="43.5988">
			<stop  offset="0" style="stop-color:#2B5876"/>
			<stop  offset="1" style="stop-color:#4E4376"/>
		</linearGradient>
		<path class="st5" d="M407.6,107.8c-0.5,1.2-1,2.5-1.6,3.7c-10,22.8-24.4,44.2-43.1,62.9c-0.3,0.3-0.7,0.7-1,1
			c2.3,25-6.1,50.8-25.3,70c-13.2,13.2-29.7,21.4-46.8,24.3c12.6-15.7,17.6-35.5,15-54.5c-7.2,3.4-14.6,6.4-22.1,8.9
			c-3.3,1.1-6.7,2.1-10.1,3.1c-16.1,4.5-32.6,7-49.1,7.5c0.2-7.8,0.9-15.7,2.1-23.4c0.3-1.7,0.5-3.5,0.8-5.2
			c1.2-6.9,2.7-13.7,4.6-20.5c0.5-1.7,1-3.4,1.5-5.1c0.5-1.7,1.1-3.4,1.6-5c2.5-7.5,5.5-14.9,8.9-22.1c-19-2.5-38.7,2.5-54.5,15.1
			c3-17.2,11.1-33.6,24.3-46.8c19.2-19.2,45-27.6,70-25.3c0.3-0.3,0.6-0.7,1-1c18.7-18.7,40.1-33,62.9-43.1c1.2-0.5,2.4-1.1,3.7-1.6
			c-15.4-8.1-32.7-13.2-50.9-14.7c-84.3-6.8-154.2,66-144.1,149.9c1.7,14,5.5,27.3,11.2,39.7c5.1,11.2,6,23.8,2.3,35.5l-13.4,41.5
			c0,0.1,0,0.2,0.1,0.1l42.1-13.9c11-3.6,23-2.9,33.5,2.1c25.6,12.1,55.6,16.4,87,9.6c50.2-10.8,89.7-49.9,100.9-99.9
			C426.8,166.9,421.6,134.7,407.6,107.8z"/>
	</g>
	<g>
		<linearGradient id="SVGID_7_" gradientUnits="userSpaceOnUse" x1="535.119" y1="-15.3452" x2="535.119" y2="149.2512">
			<stop  offset="0" style="stop-color:#2B5876"/>
			<stop  offset="1" style="stop-color:#4E4376"/>
		</linearGradient>
		<path class="st6" d="M548.1,175.4l-12.8-18.5h-0.8H521v18.5h-15.4v-66.6h28.8c5.9,0,11,1,15.4,2.9c4.3,2,7.7,4.8,10,8.4
			s3.5,7.9,3.5,12.8c0,4.9-1.2,9.2-3.6,12.8c-2.4,3.6-5.8,6.3-10.1,8.2l14.9,21.4H548.1z M544.2,124.3c-2.4-2-5.9-3-10.6-3H521v23.2
			h12.6c4.6,0,8.1-1,10.6-3c2.4-2,3.6-4.9,3.6-8.6C547.8,129.2,546.6,126.3,544.2,124.3z"/>
		<linearGradient id="SVGID_8_" gradientUnits="userSpaceOnUse" x1="598.8035" y1="-15.3452" x2="598.8035" y2="149.2512">
			<stop  offset="0" style="stop-color:#2B5876"/>
			<stop  offset="1" style="stop-color:#4E4376"/>
		</linearGradient>
		<path class="st7" d="M584.3,172.8c-4.3-2.3-7.6-5.4-10-9.4s-3.6-8.5-3.6-13.6c0-5.1,1.2-9.6,3.6-13.6s5.8-7.1,10-9.4
			c4.3-2.3,9.1-3.4,14.5-3.4c5.4,0,10.2,1.1,14.5,3.4c4.2,2.3,7.6,5.4,10,9.4c2.4,4,3.6,8.5,3.6,13.6c0,5.1-1.2,9.6-3.6,13.6
			c-2.4,4-5.7,7.1-10,9.4c-4.3,2.3-9.1,3.4-14.5,3.4C593.5,176.1,588.6,175,584.3,172.8z M608.2,160.1c2.4-2.6,3.7-6,3.7-10.3
			c0-4.3-1.2-7.8-3.7-10.3s-5.6-3.9-9.4-3.9c-3.8,0-6.9,1.3-9.4,3.9s-3.7,6-3.7,10.3c0,4.3,1.2,7.8,3.7,10.3s5.6,3.9,9.4,3.9
			C602.7,164,605.8,162.7,608.2,160.1z"/>
		<linearGradient id="SVGID_9_" gradientUnits="userSpaceOnUse" x1="658.7322" y1="-15.3452" x2="658.7322" y2="149.2512">
			<stop  offset="0" style="stop-color:#2B5876"/>
			<stop  offset="1" style="stop-color:#4E4376"/>
		</linearGradient>
		<path class="st8" d="M646.8,172.8c-4.3-2.3-7.7-5.4-10.2-9.4s-3.7-8.5-3.7-13.6c0-5.1,1.2-9.6,3.7-13.6s5.8-7.1,10.2-9.4
			c4.3-2.3,9.2-3.4,14.7-3.4c5.4,0,10.1,1.1,14.1,3.4c4,2.3,7,5.5,8.8,9.7l-11.5,6.2c-2.7-4.7-6.5-7-11.5-7c-3.9,0-7.1,1.3-9.6,3.8
			c-2.5,2.5-3.8,6-3.8,10.4c0,4.4,1.3,7.8,3.8,10.4c2.5,2.5,5.7,3.8,9.6,3.8c5.1,0,8.9-2.3,11.5-7l11.5,6.3
			c-1.8,4.1-4.8,7.2-8.8,9.5c-4,2.3-8.7,3.4-14.1,3.4C656.1,176.1,651.2,175,646.8,172.8z"/>
		<linearGradient id="SVGID_10_" gradientUnits="userSpaceOnUse" x1="720.7049" y1="-15.3452" x2="720.7049" y2="149.2512">
			<stop  offset="0" style="stop-color:#2B5876"/>
			<stop  offset="1" style="stop-color:#4E4376"/>
		</linearGradient>
		<path class="st9" d="M714.6,155.3l-7.1,7v13h-14.8v-70.6h14.8v40l21.7-20.5h17.7l-21.3,21.7l23.2,29.5h-18L714.6,155.3z"/>
		<linearGradient id="SVGID_11_" gradientUnits="userSpaceOnUse" x1="776.4002" y1="-15.3452" x2="776.4002" y2="149.2512">
			<stop  offset="0" style="stop-color:#2B5876"/>
			<stop  offset="1" style="stop-color:#4E4376"/>
		</linearGradient>
		<path class="st10" d="M803.1,154h-38.7c0.7,3.2,2.3,5.7,4.9,7.5c2.6,1.8,5.8,2.8,9.7,2.8c2.7,0,5-0.4,7.1-1.2c2.1-0.8,4-2,5.8-3.8
			l7.9,8.6c-4.8,5.5-11.9,8.3-21.1,8.3c-5.8,0-10.9-1.1-15.3-3.4c-4.4-2.3-7.9-5.4-10.3-9.4s-3.6-8.5-3.6-13.6c0-5,1.2-9.5,3.6-13.6
			c2.4-4,5.6-7.2,9.8-9.4c4.2-2.3,8.8-3.4,13.9-3.4c5,0,9.5,1.1,13.6,3.2c4.1,2.2,7.2,5.2,9.6,9.3c2.3,4,3.5,8.7,3.5,14
			C803.4,150.2,803.3,151.5,803.1,154z M768.4,137.5c-2.3,1.9-3.7,4.5-4.2,7.8h25.2c-0.5-3.2-1.9-5.8-4.2-7.8
			c-2.3-1.9-5.1-2.9-8.4-2.9C773.5,134.7,770.6,135.6,768.4,137.5z"/>
		<linearGradient id="SVGID_12_" gradientUnits="userSpaceOnUse" x1="826.7215" y1="-15.3452" x2="826.7215" y2="149.2512">
			<stop  offset="0" style="stop-color:#2B5876"/>
			<stop  offset="1" style="stop-color:#4E4376"/>
		</linearGradient>
		<path class="st11" d="M846.3,172.9c-1.5,1.1-3.3,1.9-5.4,2.4c-2.1,0.5-4.4,0.8-6.7,0.8c-6.1,0-10.8-1.6-14.1-4.7
			c-3.3-3.1-5-7.7-5-13.7v-21h-7.9v-11.4h7.9v-12.5h14.8v12.5h12.7v11.4h-12.7v20.8c0,2.2,0.6,3.8,1.7,5c1.1,1.2,2.7,1.8,4.7,1.8
			c2.3,0,4.3-0.6,6-1.9L846.3,172.9z"/>
	</g>
	<g>
		<linearGradient id="SVGID_13_" gradientUnits="userSpaceOnUse" x1="533.6561" y1="177.329" x2="530.9895" y2="108.6623">
			<stop  offset="0" style="stop-color:#488BCA"/>
			<stop  offset="1" style="stop-color:#AEDAF4"/>
		</linearGradient>
		<path class="st12" d="M522.6,259.8c-5.3-2.9-9.4-7-12.5-12.1c-3-5.2-4.5-11-4.5-17.4c0-6.4,1.5-12.2,4.5-17.4
			c3-5.2,7.2-9.2,12.5-12.1c5.3-2.9,11.3-4.4,17.9-4.4c4.9,0,9.5,0.8,13.7,2.5c4.2,1.6,7.7,4.1,10.7,7.2l-4.5,4.5
			c-5.2-5.3-11.8-7.9-19.7-7.9c-5.3,0-10.1,1.2-14.4,3.6c-4.3,2.4-7.7,5.7-10.1,9.9c-2.4,4.2-3.7,8.9-3.7,14.1
			c0,5.2,1.2,9.9,3.7,14.1c2.4,4.2,5.8,7.5,10.1,9.9c4.3,2.4,9.1,3.6,14.4,3.6c8,0,14.6-2.7,19.7-8l4.5,4.5
			c-2.9,3.2-6.5,5.6-10.7,7.3c-4.2,1.7-8.8,2.5-13.7,2.5C533.9,264.2,527.9,262.8,522.6,259.8z"/>
		<linearGradient id="SVGID_14_" gradientUnits="userSpaceOnUse" x1="598.6428" y1="174.8052" x2="595.9761" y2="106.1386">
			<stop  offset="0" style="stop-color:#488BCA"/>
			<stop  offset="1" style="stop-color:#AEDAF4"/>
		</linearGradient>
		<path class="st13" d="M619,218.7c3.7,3.6,5.6,9,5.6,15.9v29h-6.8v-28.3c0-5.2-1.3-9.2-3.9-11.9c-2.6-2.7-6.3-4.1-11.1-4.1
			c-5.4,0-9.7,1.6-12.8,4.8c-3.1,3.2-4.7,7.6-4.7,13.3v26.3h-6.8v-70.6h6.8v29.3c1.8-2.9,4.4-5.2,7.6-6.8c3.2-1.6,6.9-2.4,11.1-2.4
			C610.3,213.2,615.3,215.1,619,218.7z"/>
		<linearGradient id="SVGID_15_" gradientUnits="userSpaceOnUse" x1="657.0269" y1="172.5379" x2="654.3603" y2="103.8712">
			<stop  offset="0" style="stop-color:#488BCA"/>
			<stop  offset="1" style="stop-color:#AEDAF4"/>
		</linearGradient>
		<path class="st14" d="M675.4,218.1c3.5,3.3,5.2,8.1,5.2,14.5v31h-6.5v-7.8c-1.5,2.6-3.8,4.6-6.7,6.1c-2.9,1.5-6.5,2.2-10.5,2.2
			c-5.6,0-10-1.3-13.3-4c-3.3-2.7-4.9-6.2-4.9-10.6c0-4.2,1.5-7.7,4.6-10.3c3.1-2.6,8-3.9,14.7-3.9h15.9v-3c0-4.3-1.2-7.6-3.6-9.8
			c-2.4-2.3-5.9-3.4-10.6-3.4c-3.2,0-6.2,0.5-9.1,1.6c-2.9,1-5.4,2.5-7.5,4.3l-3-5c2.5-2.2,5.6-3.8,9.1-5c3.6-1.2,7.3-1.8,11.2-1.8
			C666.9,213.2,671.9,214.9,675.4,218.1z M667.8,256.2c2.7-1.7,4.8-4.3,6.1-7.6v-8.2h-15.7c-8.6,0-12.8,3-12.8,8.9
			c0,2.9,1.1,5.2,3.3,6.9c2.2,1.7,5.3,2.5,9.3,2.5C661.8,258.8,665.1,257.9,667.8,256.2z"/>
		<linearGradient id="SVGID_16_" gradientUnits="userSpaceOnUse" x1="705.6" y1="170.6516" x2="702.9333" y2="101.9849">
			<stop  offset="0" style="stop-color:#488BCA"/>
			<stop  offset="1" style="stop-color:#AEDAF4"/>
		</linearGradient>
		<path class="st15" d="M725.4,260.6c-1.3,1.1-2.8,2-4.7,2.6c-1.9,0.6-3.8,0.9-5.9,0.9c-4.7,0-8.3-1.3-10.8-3.8
			c-2.5-2.5-3.8-6.1-3.8-10.7v-30.3h-8.9v-5.7h8.9v-10.9h6.8v10.9h15.2v5.7h-15.2v29.9c0,3,0.7,5.2,2.2,6.8c1.5,1.6,3.6,2.3,6.4,2.3
			c1.4,0,2.7-0.2,4-0.7c1.3-0.4,2.4-1.1,3.4-1.9L725.4,260.6z"/>
	</g>
</g>
<g>
	<g>
		<g>
			<linearGradient id="SVGID_17_" gradientUnits="userSpaceOnUse" x1="435.4051" y1="647.4439" x2="516.7288" y2="647.4439">
				<stop  offset="0" style="stop-color:#FEF0EB"/>
				<stop  offset="0.4988" style="stop-color:#D4E8F2"/>
				<stop  offset="1" style="stop-color:#ADE0F8"/>
			</linearGradient>
			<path class="st16" d="M442.9,650c0.5-1.7,1-3.4,1.5-5.1C443.8,646.6,443.3,648.3,442.9,650z"/>
			<linearGradient id="SVGID_18_" gradientUnits="userSpaceOnUse" x1="603.1674" y1="601.9761" x2="531.205" y2="697.3109">
				<stop  offset="0" style="stop-color:#488BCA"/>
				<stop  offset="1" style="stop-color:#AEDAF4"/>
			</linearGradient>
			<path class="st17" d="M501.7,734.1c17.2-3,33.6-11.1,46.8-24.3c19.2-19.2,27.6-45,25.3-70c-17.1,16.9-36.4,30.2-57.1,39.9
				C519.3,698.6,514.3,718.4,501.7,734.1z"/>
			<linearGradient id="SVGID_19_" gradientUnits="userSpaceOnUse" x1="526.9431" y1="535.1162" x2="432.2233" y2="607.0786">
				<stop  offset="0" style="stop-color:#488BCA"/>
				<stop  offset="1" style="stop-color:#AEDAF4"/>
			</linearGradient>
			<path class="st18" d="M424.7,586c-13.2,13.2-21.4,29.7-24.3,46.8c15.7-12.6,35.5-17.6,54.5-15.1c9.7-20.6,23-39.9,39.9-57
				C469.7,558.4,443.9,566.8,424.7,586z"/>
			<linearGradient id="SVGID_20_" gradientUnits="userSpaceOnUse" x1="486.4175" y1="651.1265" x2="626.1378" y2="502.6737">
				<stop  offset="0" style="stop-color:#488BCA"/>
				<stop  offset="1" style="stop-color:#AEDAF4"/>
			</linearGradient>
			<path class="st19" d="M629.1,505.4c-3.5-3.5-8.2-5-12.7-4.6c-0.3,0-0.5,0.1-0.8,0.1c-18.2,2.3-36.2,7-53.3,14.1
				c-1.2,0.5-2.5,1-3.7,1.6c-22.8,10-44.2,24.4-62.9,43.1c-0.3,0.3-0.7,0.7-1,1c-16.9,17.1-30.2,36.4-39.9,57
				c15.1,2,29.8,8.8,41.4,20.5c11.6,11.6,18.5,26.3,20.5,41.4c20.6-9.7,39.9-23,57.1-39.9c0.3-0.3,0.7-0.6,1-1
				c18.7-18.7,33-40.1,43.1-62.9c0.5-1.2,1.1-2.5,1.6-3.7c7.1-17.2,11.8-35.1,14.1-53.3c0-0.3,0.1-0.5,0.1-0.8
				C634,513.6,632.5,508.9,629.1,505.4z M574.9,580.1c-11.3,0-20.5-9.2-20.5-20.5c0-11.3,9.2-20.5,20.5-20.5
				c11.3,0,20.5,9.2,20.5,20.5C595.3,570.9,586.1,580.1,574.9,580.1z"/>
			<linearGradient id="SVGID_21_" gradientUnits="userSpaceOnUse" x1="434.6132" y1="699.8735" x2="496.5856" y2="637.9011">
				<stop  offset="0" style="stop-color:#488BCA"/>
				<stop  offset="1" style="stop-color:#AEDAF4"/>
			</linearGradient>
			<path class="st20" d="M454.8,617.7c-3.4,7.2-6.4,14.6-8.9,22.1c-0.6,1.7-1.1,3.3-1.6,5c-0.5,1.7-1,3.4-1.5,5.1
				c-1.9,6.8-3.4,13.6-4.6,20.5c-0.3,1.7-0.6,3.4-0.8,5.2c-1.1,7.8-1.8,15.6-2.1,23.4c16.5-0.5,33-3,49.1-7.5
				c3.4-0.9,6.7-2,10.1-3.1c7.5-2.5,14.9-5.5,22.1-8.9c-2-15.1-8.8-29.8-20.5-41.4C484.6,626.6,470,619.8,454.8,617.7z"/>
			<linearGradient id="SVGID_22_" gradientUnits="userSpaceOnUse" x1="369.5265" y1="765.5645" x2="627.0727" y2="508.0184">
				<stop  offset="0" style="stop-color:#2B5876"/>
				<stop  offset="1" style="stop-color:#4E4376"/>
			</linearGradient>
			<path class="st21" d="M619.4,572.2c-0.5,1.2-1,2.5-1.6,3.7c-10,22.8-24.4,44.2-43.1,62.9c-0.3,0.3-0.7,0.7-1,1
				c2.3,25-6.1,50.8-25.3,70c-13.2,13.2-29.7,21.4-46.8,24.3c12.6-15.7,17.6-35.5,15-54.5c-7.2,3.4-14.6,6.4-22.1,8.9
				c-3.3,1.1-6.7,2.1-10.1,3.1c-16.1,4.5-32.6,7-49.1,7.5c0.2-7.8,0.9-15.7,2.1-23.4c0.3-1.7,0.5-3.5,0.8-5.2
				c1.2-6.9,2.7-13.7,4.6-20.5c0.5-1.7,1-3.4,1.5-5.1c0.5-1.7,1.1-3.4,1.6-5c2.5-7.5,5.5-14.9,8.9-22.1c-19-2.5-38.7,2.5-54.5,15.1
				c3-17.2,11.1-33.6,24.3-46.8c19.2-19.2,45-27.6,70-25.3c0.3-0.3,0.6-0.7,1-1c18.7-18.7,40.1-33,62.9-43.1
				c1.2-0.5,2.4-1.1,3.7-1.6c-15.4-8.1-32.7-13.2-50.9-14.7c-84.3-6.8-154.2,66-144.1,149.9c1.7,14,5.5,27.3,11.2,39.7
				c5.1,11.2,6,23.8,2.3,35.5l-13.4,41.5c0,0.1,0,0.2,0.1,0.1l42.1-13.9c11-3.6,23-2.9,33.5,2.1c25.6,12.1,55.6,16.4,87,9.6
				c50.2-10.8,89.7-49.9,100.9-99.9C638.6,631.3,633.4,599.1,619.4,572.2z"/>
		</g>
	</g>
	<g>
		<g>
			<g>
				<linearGradient id="SVGID_23_" gradientUnits="userSpaceOnUse" x1="197.6259" y1="720.3623" x2="197.6259" y2="909.7029">
					<stop  offset="0" style="stop-color:#2B5876"/>
					<stop  offset="1" style="stop-color:#4E4376"/>
				</linearGradient>
				<path class="st22" d="M212.5,939.8l-14.8-21.3h-0.9h-15.4v21.3h-17.7v-76.6h33.2c6.8,0,12.7,1.1,17.7,3.4
					c5,2.3,8.8,5.5,11.5,9.6s4,9.1,4,14.8c0,5.7-1.4,10.6-4.1,14.7c-2.7,4.1-6.6,7.3-11.7,9.5l17.2,24.6H212.5z M208,881
					c-2.8-2.3-6.8-3.4-12.1-3.4h-14.4v26.7h14.4c5.3,0,9.4-1.2,12.1-3.5c2.8-2.3,4.2-5.6,4.2-9.8C212.2,886.6,210.8,883.3,208,881z"
					/>
				<linearGradient id="SVGID_24_" gradientUnits="userSpaceOnUse" x1="270.8843" y1="720.3623" x2="270.8843" y2="909.7029">
					<stop  offset="0" style="stop-color:#2B5876"/>
					<stop  offset="1" style="stop-color:#4E4376"/>
				</linearGradient>
				<path class="st23" d="M254.3,936.7c-4.9-2.6-8.8-6.2-11.5-10.8c-2.8-4.6-4.2-9.8-4.2-15.6c0-5.8,1.4-11.1,4.2-15.6
					c2.8-4.6,6.6-8.2,11.5-10.8c4.9-2.6,10.5-3.9,16.7-3.9c6.2,0,11.7,1.3,16.6,3.9c4.9,2.6,8.7,6.2,11.5,10.8
					c2.8,4.6,4.2,9.8,4.2,15.6c0,5.8-1.4,11.1-4.2,15.6c-2.8,4.6-6.6,8.2-11.5,10.8c-4.9,2.6-10.4,3.9-16.6,3.9
					C264.7,940.6,259.2,939.3,254.3,936.7z M281.7,922.2c2.8-3,4.2-6.9,4.2-11.9c0-5-1.4-8.9-4.2-11.9c-2.8-3-6.4-4.4-10.8-4.4
					c-4.4,0-8,1.5-10.8,4.4c-2.8,3-4.3,6.9-4.3,11.9c0,5,1.4,8.9,4.3,11.9c2.8,3,6.5,4.4,10.8,4.4
					C275.3,926.6,278.9,925.1,281.7,922.2z"/>
				<linearGradient id="SVGID_25_" gradientUnits="userSpaceOnUse" x1="339.8223" y1="720.3623" x2="339.8223" y2="909.7029">
					<stop  offset="0" style="stop-color:#2B5876"/>
					<stop  offset="1" style="stop-color:#4E4376"/>
				</linearGradient>
				<path class="st24" d="M326.1,936.7c-5-2.6-8.9-6.2-11.7-10.8c-2.8-4.6-4.2-9.8-4.2-15.6c0-5.8,1.4-11.1,4.2-15.6
					c2.8-4.6,6.7-8.2,11.7-10.8c5-2.6,10.6-3.9,16.9-3.9c6.2,0,11.6,1.3,16.3,3.9c4.6,2.6,8,6.3,10.1,11.1l-13.2,7.1
					c-3.1-5.4-7.5-8.1-13.2-8.1c-4.5,0-8.1,1.5-11.1,4.4c-2.9,2.9-4.4,6.9-4.4,11.9c0,5,1.5,9,4.4,11.9c2.9,2.9,6.6,4.4,11.1,4.4
					c5.8,0,10.2-2.7,13.2-8.1l13.2,7.2c-2.1,4.7-5.5,8.3-10.1,10.9c-4.6,2.6-10,3.9-16.3,3.9C336.8,940.6,331.1,939.3,326.1,936.7z"
					/>
				<linearGradient id="SVGID_26_" gradientUnits="userSpaceOnUse" x1="411.1114" y1="720.3623" x2="411.1114" y2="909.7029">
					<stop  offset="0" style="stop-color:#2B5876"/>
					<stop  offset="1" style="stop-color:#4E4376"/>
				</linearGradient>
				<path class="st25" d="M404.1,916.7l-8.2,8.1v15h-17.1v-81.2h17.1v46l24.9-23.6h20.4l-24.5,24.9l26.7,33.9h-20.7L404.1,916.7z"/>
				<linearGradient id="SVGID_27_" gradientUnits="userSpaceOnUse" x1="475.1796" y1="720.3623" x2="475.1796" y2="909.7029">
					<stop  offset="0" style="stop-color:#2B5876"/>
					<stop  offset="1" style="stop-color:#4E4376"/>
				</linearGradient>
				<path class="st26" d="M505.9,915.1h-44.5c0.8,3.6,2.7,6.5,5.7,8.6c3,2.1,6.7,3.2,11.2,3.2c3.1,0,5.8-0.5,8.2-1.4
					c2.4-0.9,4.6-2.4,6.6-4.3l9.1,9.8c-5.5,6.3-13.6,9.5-24.3,9.5c-6.6,0-12.5-1.3-17.6-3.9c-5.1-2.6-9-6.2-11.8-10.8
					c-2.8-4.6-4.2-9.8-4.2-15.6c0-5.8,1.4-11,4.1-15.6c2.7-4.6,6.5-8.2,11.3-10.8c4.8-2.6,10.1-3.9,16-3.9c5.8,0,11,1.2,15.6,3.7
					c4.7,2.5,8.3,6,11,10.7c2.7,4.6,4,10,4,16.1C506.2,910.8,506.1,912.3,505.9,915.1z M465.9,896.2c-2.6,2.2-4.2,5.2-4.8,9h29
					c-0.6-3.7-2.2-6.7-4.8-8.9c-2.6-2.2-5.8-3.3-9.6-3.3C471.8,892.9,468.6,894,465.9,896.2z"/>
				<linearGradient id="SVGID_28_" gradientUnits="userSpaceOnUse" x1="533.0657" y1="720.3623" x2="533.0657" y2="909.7029">
					<stop  offset="0" style="stop-color:#2B5876"/>
					<stop  offset="1" style="stop-color:#4E4376"/>
				</linearGradient>
				<path class="st27" d="M555.6,936.9c-1.7,1.2-3.7,2.2-6.2,2.8c-2.4,0.6-5,0.9-7.7,0.9c-7,0-12.4-1.8-16.2-5.4
					c-3.8-3.6-5.7-8.8-5.7-15.8v-24.2h-9.1v-13.1h9.1v-14.3h17.1v14.3h14.7v13.1h-14.7v24c0,2.5,0.6,4.4,1.9,5.7
					c1.3,1.4,3.1,2,5.4,2c2.7,0,5-0.7,6.9-2.2L555.6,936.9z"/>
			</g>
		</g>
		<g>
			<linearGradient id="SVGID_29_" gradientUnits="userSpaceOnUse" x1="616.5989" y1="840.6725" x2="613.5314" y2="761.683">
				<stop  offset="0" style="stop-color:#488BCA"/>
				<stop  offset="1" style="stop-color:#AEDAF4"/>
			</linearGradient>
			<path class="st28" d="M603.9,935.6c-6.1-3.4-10.9-8-14.3-14c-3.5-5.9-5.2-12.6-5.2-20c0-7.4,1.7-14,5.2-20
				c3.5-5.9,8.3-10.6,14.4-14c6.1-3.4,13-5,20.6-5c5.7,0,10.9,0.9,15.8,2.8c4.8,1.9,8.9,4.7,12.3,8.3l-5.1,5.1
				c-6-6.1-13.5-9.1-22.7-9.1c-6.1,0-11.6,1.4-16.5,4.2c-5,2.8-8.8,6.6-11.7,11.4c-2.8,4.8-4.2,10.2-4.2,16.2c0,6,1.4,11.4,4.2,16.2
				c2.8,4.8,6.7,8.6,11.7,11.4c5,2.8,10.5,4.2,16.5,4.2c9.2,0,16.7-3.1,22.7-9.2l5.1,5.1c-3.4,3.6-7.5,6.4-12.3,8.4
				c-4.9,1.9-10.1,2.9-15.8,2.9C616.8,940.6,610,939,603.9,935.6z"/>
			<linearGradient id="SVGID_30_" gradientUnits="userSpaceOnUse" x1="691.3552" y1="837.7693" x2="688.2876" y2="758.7798">
				<stop  offset="0" style="stop-color:#488BCA"/>
				<stop  offset="1" style="stop-color:#AEDAF4"/>
			</linearGradient>
			<path class="st29" d="M714.7,888.3c4.3,4.2,6.4,10.3,6.4,18.3V940h-7.8v-32.6c0-6-1.5-10.5-4.5-13.7c-3-3.1-7.3-4.7-12.8-4.7
				c-6.2,0-11.1,1.8-14.7,5.5c-3.6,3.7-5.4,8.8-5.4,15.3V940h-7.8v-81.2h7.8v33.7c2.1-3.4,5-5.9,8.8-7.8c3.7-1.8,8-2.7,12.8-2.7
				C704.7,882,710.5,884.1,714.7,888.3z"/>
			<linearGradient id="SVGID_31_" gradientUnits="userSpaceOnUse" x1="758.5163" y1="835.1611" x2="755.4487" y2="756.1716">
				<stop  offset="0" style="stop-color:#488BCA"/>
				<stop  offset="1" style="stop-color:#AEDAF4"/>
			</linearGradient>
			<path class="st30" d="M779.7,887.6c4,3.8,6,9.3,6,16.7V940h-7.4v-9c-1.8,3-4.3,5.3-7.7,7c-3.4,1.7-7.4,2.5-12.1,2.5
				c-6.4,0-11.5-1.5-15.3-4.6c-3.8-3.1-5.7-7.1-5.7-12.1c0-4.9,1.8-8.8,5.3-11.8c3.5-3,9.2-4.5,16.9-4.5h18.3V904
				c0-5-1.4-8.7-4.2-11.3c-2.8-2.6-6.8-3.9-12.1-3.9c-3.6,0-7.1,0.6-10.5,1.8c-3.4,1.2-6.2,2.9-8.6,5l-3.5-5.8
				c2.9-2.5,6.4-4.4,10.5-5.7c4.1-1.3,8.4-2,12.9-2C769.9,882,775.7,883.9,779.7,887.6z M770.9,931.4c3.1-2,5.5-4.9,7-8.7v-9.4
				h-18.1c-9.8,0-14.8,3.4-14.8,10.3c0,3.4,1.3,6,3.8,7.9c2.6,1.9,6.1,2.9,10.7,2.9C764,934.4,767.8,933.4,770.9,931.4z"/>
			<linearGradient id="SVGID_32_" gradientUnits="userSpaceOnUse" x1="814.3915" y1="832.9912" x2="811.3239" y2="754.0017">
				<stop  offset="0" style="stop-color:#488BCA"/>
				<stop  offset="1" style="stop-color:#AEDAF4"/>
			</linearGradient>
			<path class="st31" d="M837.1,936.5c-1.5,1.3-3.3,2.3-5.4,3c-2.2,0.7-4.4,1-6.7,1c-5.4,0-9.6-1.5-12.5-4.4
				c-2.9-2.9-4.4-7-4.4-12.4V889h-10.3v-6.6h10.3v-12.6h7.8v12.6h17.5v6.6h-17.5v34.4c0,3.4,0.9,6,2.6,7.8c1.7,1.8,4.2,2.7,7.4,2.7
				c1.6,0,3.2-0.3,4.7-0.8c1.5-0.5,2.8-1.2,3.9-2.2L837.1,936.5z"/>
		</g>
	</g>
</g>
</svg>
