<?xml version="1.0" encoding="utf-8"?>
<!-- Generator: Adobe Illustrator 21.0.2, SVG Export Plug-In . SVG Version: 6.00 Build 0)  -->
<svg version="1.1" id="Layer_1" xmlns="http://www.w3.org/2000/svg" xmlns:xlink="http://www.w3.org/1999/xlink" x="0px" y="0px"
	 viewBox="0 0 1000 1000" style="enable-background:new 0 0 1000 1000;" xml:space="preserve">
<style type="text/css">
	.st0{fill:url(#SVGID_1_);}
	.st1{fill:url(#SVGID_2_);}
	.st2{fill:url(#SVGID_3_);}
	.st3{fill:url(#SVGID_4_);}
	.st4{fill:url(#SVGID_5_);}
	.st5{fill:url(#SVGID_6_);}
	.st6{fill:url(#SVGID_7_);}
	.st7{fill:url(#SVGID_8_);}
	.st8{fill:url(#SVGID_9_);}
	.st9{fill:url(#SVGID_10_);}
	.st10{fill:url(#SVGID_11_);}
	.st11{fill:url(#SVGID_12_);}
	.st12{fill:url(#SVGID_13_);}
	.st13{fill:url(#SVGID_14_);}
	.st14{fill:url(#SVGID_15_);}
	.st15{fill:url(#SVGID_16_);}
	.st16{fill:url(#SVGID_17_);}
	.st17{fill:url(#SVGID_18_);}
	.st18{fill:url(#SVGID_19_);}
	.st19{fill:url(#SVGID_20_);}
	.st20{fill:url(#SVGID_21_);}
	.st21{fill:url(#SVGID_22_);}
	.st22{fill:url(#SVGID_23_);}
</style>
<g>
	<linearGradient id="SVGID_1_" gradientUnits="userSpaceOnUse" x1="742.8357" y1="340.9409" x2="833.1459" y2="340.9409">
		<stop  offset="0" style="stop-color:#F5EEEE"/>
		<stop  offset="0.3661" style="stop-color:#F9D6DB"/>
		<stop  offset="1" style="stop-color:#FFAFBC"/>
	</linearGradient>
	<path class="st0" d="M742.8,399.7c21.4-3.7,41.9-13.8,58.4-30.3c23.9-23.9,34.4-56,31.5-87.2c-21.3,21.1-45.4,37.6-71.1,49.7
		C764.7,355.5,758.5,380.1,742.8,399.7z"/>
	<linearGradient id="SVGID_2_" gradientUnits="userSpaceOnUse" x1="774.309" y1="151.7392" x2="656.2845" y2="241.4072">
		<stop  offset="0" style="stop-color:#F5EEEE"/>
		<stop  offset="0.3661" style="stop-color:#F9D6DB"/>
		<stop  offset="1" style="stop-color:#FFAFBC"/>
	</linearGradient>
	<path class="st1" d="M646.9,215.1c-16.5,16.5-26.6,37-30.3,58.4c19.6-15.7,44.3-21.9,67.9-18.8c12.1-25.7,28.6-49.8,49.7-71.1
		C703,180.7,670.8,191.2,646.9,215.1z"/>
	<linearGradient id="SVGID_3_" gradientUnits="userSpaceOnUse" x1="723.8126" y1="296.2927" x2="897.9096" y2="111.3146">
		<stop  offset="0" style="stop-color:#F5EEEE"/>
		<stop  offset="0.3661" style="stop-color:#F9D6DB"/>
		<stop  offset="1" style="stop-color:#FFAFBC"/>
	</linearGradient>
	<path class="st2" d="M901.5,114.8c-4.3-4.3-10.2-6.2-15.8-5.7c-0.3,0-0.6,0.1-0.9,0.1c-22.7,2.8-45,8.7-66.5,17.6
		c-1.5,0.6-3.1,1.3-4.6,2c-28.5,12.5-55.1,30.3-78.4,53.6c-0.4,0.4-0.8,0.8-1.2,1.2c-21.1,21.3-37.6,45.4-49.7,71.1
		c18.9,2.5,37.1,11,51.6,25.5c14.5,14.5,23,32.7,25.5,51.6c25.7-12.1,49.8-28.6,71.1-49.7c0.4-0.4,0.8-0.8,1.2-1.2
		c23.3-23.3,41.2-50,53.6-78.4c0.7-1.5,1.3-3.1,2-4.6c8.9-21.4,14.8-43.8,17.6-66.5c0.1-0.3,0.1-0.6,0.1-0.9
		C907.8,124.9,905.9,119.1,901.5,114.8z M834,207.7c-14.1,0-25.5-11.4-25.5-25.5c0-14.1,11.4-25.5,25.5-25.5
		c14.1,0,25.5,11.4,25.5,25.5C859.5,196.3,848.1,207.7,834,207.7z"/>
	<linearGradient id="SVGID_4_" gradientUnits="userSpaceOnUse" x1="659.2625" y1="357.0333" x2="736.4825" y2="279.8132">
		<stop  offset="0" style="stop-color:#F5EEEE"/>
		<stop  offset="0.3661" style="stop-color:#F9D6DB"/>
		<stop  offset="1" style="stop-color:#FFAFBC"/>
	</linearGradient>
	<path class="st3" d="M684.5,254.7c-4.2,9-7.9,18.2-11.1,27.6c-0.7,2.1-1.4,4.2-2,6.3c-0.6,2.1-1.2,4.2-1.8,6.3
		c-2.3,8.4-4.3,17-5.7,25.5c-0.4,2.1-0.7,4.3-1,6.4c-1.4,9.7-2.3,19.4-2.6,29.2c20.6-0.6,41.2-3.7,61.2-9.3
		c4.2-1.2,8.4-2.5,12.6-3.8c9.4-3.1,18.6-6.8,27.6-11.1c-2.5-18.9-11-37.1-25.5-51.6C721.6,265.7,703.3,257.2,684.5,254.7z"/>
	<linearGradient id="SVGID_5_" gradientUnits="userSpaceOnUse" x1="578.1619" y1="438.8869" x2="899.0745" y2="117.9743">
		<stop  offset="0" style="stop-color:#FF0A44"/>
		<stop  offset="1" style="stop-color:#FFC2A0"/>
	</linearGradient>
	<path class="st4" d="M889.5,198c-0.6,1.5-1.3,3.1-2,4.6c-12.5,28.5-30.3,55.1-53.6,78.4c-0.4,0.4-0.8,0.8-1.2,1.2
		c2.9,31.2-7.6,63.3-31.5,87.2c-16.5,16.5-37,26.6-58.4,30.3c15.7-19.6,21.9-44.2,18.7-67.9c-9,4.2-18.2,7.9-27.6,11.1
		c-4.2,1.4-8.3,2.7-12.6,3.8c-20,5.6-40.6,8.7-61.2,9.3c0.3-9.8,1.1-19.5,2.6-29.2c0.3-2.2,0.7-4.3,1-6.4c1.5-8.6,3.4-17.1,5.7-25.5
		c0.6-2.1,1.2-4.2,1.8-6.3c0.6-2.1,1.3-4.2,2-6.3c3.1-9.4,6.8-18.6,11.1-27.6c-23.6-3.2-48.3,3.1-67.9,18.8
		c3.7-21.4,13.8-41.9,30.3-58.4c23.9-23.9,56.1-34.4,87.2-31.5c0.4-0.4,0.8-0.8,1.2-1.2c23.3-23.3,50-41.2,78.4-53.6
		c1.5-0.7,3.1-1.3,4.6-2c-19.2-10-40.7-16.4-63.4-18.3c-105-8.5-192.2,82.2-179.5,186.8c2.1,17.4,6.9,34.1,14,49.4
		c6.4,13.9,7.5,29.6,2.8,44.2l-16.7,51.7c0,0.1,0.1,0.2,0.2,0.2l52.5-17.3c13.7-4.5,28.6-3.6,41.7,2.6c31.9,15.1,69.3,20.4,108.4,12
		C840.8,424.7,890.1,376,904,313.6C913.4,271.6,907,231.5,889.5,198z"/>
</g>
<g>
	<linearGradient id="SVGID_6_" gradientUnits="userSpaceOnUse" x1="176.1931" y1="291.5271" x2="276.4497" y2="291.5271">
		<stop  offset="0" style="stop-color:#FEF0EB"/>
		<stop  offset="0.4988" style="stop-color:#D4E8F2"/>
		<stop  offset="1" style="stop-color:#ADE0F8"/>
	</linearGradient>
	<path class="st5" d="M185.4,294.6c0.6-2.1,1.2-4.2,1.8-6.2C186.6,290.5,186,292.6,185.4,294.6z"/>
	<linearGradient id="SVGID_7_" gradientUnits="userSpaceOnUse" x1="383.0121" y1="235.4739" x2="294.2961" y2="353.0036">
		<stop  offset="0" style="stop-color:#488BCA"/>
		<stop  offset="1" style="stop-color:#AEDAF4"/>
	</linearGradient>
	<path class="st6" d="M257.9,398.4c21.2-3.7,41.4-13.7,57.7-30c23.6-23.6,34-55.5,31.1-86.3c-21.1,20.8-44.9,37.2-70.3,49.1
		C279.6,354.6,273.4,379,257.9,398.4z"/>
	<linearGradient id="SVGID_8_" gradientUnits="userSpaceOnUse" x1="289.042" y1="153.0484" x2="172.2705" y2="241.7644">
		<stop  offset="0" style="stop-color:#488BCA"/>
		<stop  offset="1" style="stop-color:#AEDAF4"/>
	</linearGradient>
	<path class="st7" d="M163,215.7c-16.3,16.3-26.3,36.6-30,57.7c19.4-15.5,43.8-21.7,67.2-18.6c11.9-25.4,28.3-49.2,49.1-70.3
		C218.5,181.7,186.6,192.1,163,215.7z"/>
	<linearGradient id="SVGID_9_" gradientUnits="userSpaceOnUse" x1="239.0816" y1="296.0671" x2="411.3303" y2="113.0529">
		<stop  offset="0" style="stop-color:#488BCA"/>
		<stop  offset="1" style="stop-color:#AEDAF4"/>
	</linearGradient>
	<path class="st8" d="M414.9,116.5c-4.3-4.3-10.1-6.1-15.7-5.6c-0.3,0-0.6,0.1-0.9,0.1c-22.4,2.8-44.6,8.6-65.8,17.4
		c-1.5,0.6-3,1.3-4.5,1.9c-28.2,12.3-54.5,30-77.6,53.1c-0.4,0.4-0.8,0.8-1.2,1.2c-20.8,21.1-37.2,44.9-49.1,70.3
		c18.7,2.5,36.7,10.9,51.1,25.2c14.3,14.3,22.8,32.4,25.2,51.1c25.4-11.9,49.2-28.3,70.3-49.1c0.4-0.4,0.8-0.8,1.2-1.2
		c23.1-23.1,40.7-49.4,53.1-77.6c0.7-1.5,1.3-3,1.9-4.5c8.8-21.2,14.6-43.3,17.4-65.7c0.1-0.3,0.1-0.6,0.1-0.9
		C421.1,126.5,419.2,120.7,414.9,116.5z M348.1,208.5c-13.9,0-25.2-11.3-25.2-25.2c0-13.9,11.3-25.2,25.2-25.2
		c13.9,0,25.2,11.3,25.2,25.2C373.3,197.2,362,208.5,348.1,208.5z"/>
	<linearGradient id="SVGID_10_" gradientUnits="userSpaceOnUse" x1="175.2168" y1="356.1628" x2="251.617" y2="279.7626">
		<stop  offset="0" style="stop-color:#488BCA"/>
		<stop  offset="1" style="stop-color:#AEDAF4"/>
	</linearGradient>
	<path class="st9" d="M200.2,254.9c-4.2,8.9-7.8,18-10.9,27.3c-0.7,2.1-1.3,4.1-2,6.2c-0.6,2.1-1.2,4.1-1.8,6.2
		c-2.3,8.3-4.2,16.8-5.7,25.3c-0.4,2.1-0.7,4.2-1,6.4c-1.4,9.6-2.2,19.2-2.5,28.9c20.4-0.6,40.7-3.7,60.5-9.2
		c4.2-1.2,8.3-2.4,12.4-3.8c9.3-3.1,18.4-6.7,27.3-10.9c-2.5-18.7-10.9-36.7-25.2-51.1C236.9,265.8,218.8,257.4,200.2,254.9z"/>
	<linearGradient id="SVGID_11_" gradientUnits="userSpaceOnUse" x1="94.9773" y1="437.1474" x2="412.4828" y2="119.6419">
		<stop  offset="0" style="stop-color:#2B5876"/>
		<stop  offset="1" style="stop-color:#4E4376"/>
	</linearGradient>
	<path class="st10" d="M403,198.8c-0.6,1.5-1.3,3-1.9,4.5c-12.3,28.2-30,54.5-53.1,77.6c-0.4,0.4-0.8,0.8-1.2,1.2
		c2.9,30.8-7.5,62.7-31.1,86.3c-16.3,16.3-36.6,26.3-57.7,30c15.5-19.4,21.7-43.8,18.5-67.2c-8.9,4.2-18,7.8-27.3,10.9
		c-4.1,1.4-8.3,2.6-12.4,3.8c-19.8,5.5-40.1,8.6-60.5,9.2c0.3-9.7,1.1-19.3,2.5-28.9c0.3-2.1,0.6-4.3,1-6.4
		c1.5-8.5,3.3-16.9,5.7-25.3c0.6-2.1,1.2-4.2,1.8-6.2c0.6-2.1,1.3-4.1,2-6.2c3.1-9.3,6.7-18.4,10.9-27.3
		c-23.4-3.1-47.8,3.1-67.2,18.6c3.7-21.2,13.7-41.4,30-57.7c23.6-23.6,55.5-34,86.3-31.1c0.4-0.4,0.8-0.8,1.2-1.2
		c23.1-23.1,49.4-40.7,77.6-53.1c1.5-0.7,3-1.3,4.5-1.9c-19-9.9-40.3-16.2-62.7-18.1C166,101.9,79.7,191.6,92.3,295.1
		c2.1,17.3,6.8,33.7,13.8,48.9c6.3,13.7,7.4,29.3,2.8,43.7l-16.5,51.1c0,0.1,0.1,0.2,0.2,0.2l51.9-17.1c13.6-4.5,28.3-3.5,41.3,2.6
		c31.5,14.9,68.6,20.2,107.3,11.9c61.8-13.3,110.6-61.5,124.4-123.2C426.7,271.6,420.3,231.9,403,198.8z"/>
</g>
<g>
	<linearGradient id="SVGID_12_" gradientUnits="userSpaceOnUse" x1="175.5459" y1="739.6042" x2="276.6121" y2="739.6042">
		<stop  offset="0" style="stop-color:#FEF0EB"/>
		<stop  offset="0.4988" style="stop-color:#D4E8F2"/>
		<stop  offset="1" style="stop-color:#ADE0F8"/>
	</linearGradient>
	<path class="st11" d="M184.8,742.7c0.6-2.1,1.2-4.2,1.8-6.3C186,738.5,185.4,740.6,184.8,742.7z"/>
	<linearGradient id="SVGID_13_" gradientUnits="userSpaceOnUse" x1="384.035" y1="683.0983" x2="294.6026" y2="801.5771">
		<stop  offset="0" style="stop-color:#F2742F"/>
		<stop  offset="1" style="stop-color:#FFE884"/>
	</linearGradient>
	<path class="st12" d="M257.9,847.3c21.3-3.7,41.8-13.8,58.2-30.3c23.8-23.8,34.3-55.9,31.4-87c-21.3,21-45.3,37.5-70.9,49.5
		C279.8,803.2,273.5,827.8,257.9,847.3z"/>
	<linearGradient id="SVGID_14_" gradientUnits="userSpaceOnUse" x1="289.3061" y1="600.0072" x2="171.5917" y2="689.4396">
		<stop  offset="0" style="stop-color:#F2742F"/>
		<stop  offset="1" style="stop-color:#FFE884"/>
	</linearGradient>
	<path class="st13" d="M162.2,663.2c-16.5,16.5-26.5,36.9-30.2,58.2c19.5-15.6,44.1-21.9,67.7-18.7c12-25.6,28.5-49.6,49.5-70.9
		C218.2,628.9,186.1,639.4,162.2,663.2z"/>
	<linearGradient id="SVGID_15_" gradientUnits="userSpaceOnUse" x1="238.9423" y1="744.1808" x2="412.5819" y2="559.6887">
		<stop  offset="0" style="stop-color:#F2742F"/>
		<stop  offset="1" style="stop-color:#FFE884"/>
	</linearGradient>
	<path class="st14" d="M416.2,563.1c-4.3-4.3-10.1-6.2-15.8-5.7c-0.3,0-0.6,0.1-0.9,0.1c-22.6,2.8-44.9,8.7-66.3,17.6
		c-1.5,0.6-3.1,1.3-4.6,1.9c-28.4,12.4-55,30.3-78.2,53.5c-0.4,0.4-0.8,0.8-1.2,1.2c-21,21.3-37.5,45.3-49.5,70.9
		c18.8,2.5,37,11,51.5,25.5c14.5,14.5,22.9,32.7,25.4,51.5c25.6-12,49.6-28.5,70.9-49.5c0.4-0.4,0.8-0.8,1.2-1.2
		c23.2-23.2,41.1-49.8,53.5-78.2c0.7-1.5,1.3-3,1.9-4.6c8.9-21.4,14.7-43.7,17.6-66.3c0.1-0.3,0.1-0.6,0.1-0.9
		C422.4,573.3,420.5,567.4,416.2,563.1z M348.8,655.9c-14,0-25.4-11.4-25.4-25.4c0-14,11.4-25.4,25.4-25.4c14,0,25.4,11.4,25.4,25.4
		C374.3,644.5,362.9,655.9,348.8,655.9z"/>
	<linearGradient id="SVGID_16_" gradientUnits="userSpaceOnUse" x1="174.5617" y1="804.7618" x2="251.5789" y2="727.7446">
		<stop  offset="0" style="stop-color:#F2742F"/>
		<stop  offset="1" style="stop-color:#FFE884"/>
	</linearGradient>
	<path class="st15" d="M199.7,702.7c-4.2,9-7.9,18.2-11,27.5c-0.7,2.1-1.4,4.2-2,6.2c-0.6,2.1-1.2,4.2-1.8,6.3
		c-2.3,8.4-4.2,16.9-5.7,25.5c-0.4,2.1-0.7,4.3-1,6.4c-1.4,9.7-2.3,19.4-2.6,29.1c20.6-0.6,41.1-3.7,61-9.3
		c4.2-1.2,8.4-2.5,12.5-3.8c9.3-3.1,18.5-6.8,27.5-11c-2.5-18.8-11-37-25.4-51.5C236.7,713.7,218.5,705.2,199.7,702.7z"/>
	<linearGradient id="SVGID_17_" gradientUnits="userSpaceOnUse" x1="93.6742" y1="886.4004" x2="413.7437" y2="566.3309">
		<stop  offset="0" style="stop-color:#F58B1F"/>
		<stop  offset="1" style="stop-color:#EE3C24"/>
	</linearGradient>
	<path class="st16" d="M404.2,646.1c-0.6,1.5-1.3,3.1-1.9,4.6c-12.4,28.4-30.3,55-53.5,78.2c-0.4,0.4-0.8,0.8-1.2,1.2
		c2.9,31.1-7.6,63.2-31.4,87c-16.5,16.5-36.9,26.5-58.2,30.3c15.6-19.6,21.9-44.1,18.7-67.7c-9,4.2-18.2,7.9-27.5,11
		c-4.2,1.4-8.3,2.7-12.5,3.8c-20,5.6-40.5,8.6-61,9.3c0.3-9.7,1.1-19.5,2.6-29.1c0.3-2.1,0.6-4.3,1-6.4c1.5-8.6,3.4-17.1,5.7-25.5
		c0.6-2.1,1.2-4.2,1.8-6.3c0.6-2.1,1.3-4.2,2-6.2c3.1-9.3,6.8-18.5,11-27.5c-23.6-3.1-48.2,3.1-67.7,18.7
		c3.7-21.3,13.8-41.8,30.2-58.2c23.8-23.8,55.9-34.3,87-31.4c0.4-0.4,0.8-0.8,1.2-1.2c23.2-23.2,49.8-41.1,78.2-53.5
		c1.5-0.7,3-1.3,4.6-1.9c-19.2-10-40.6-16.4-63.3-18.2c-104.7-8.5-191.7,82-179,186.3c2.1,17.4,6.9,34,13.9,49.3
		c6.4,13.9,7.5,29.6,2.8,44.1l-16.6,51.5c0,0.1,0.1,0.2,0.2,0.2l52.3-17.2c13.7-4.5,28.6-3.6,41.6,2.6c31.8,15.1,69.1,20.3,108.1,12
		c62.3-13.4,111.5-62,125.4-124.2C428,719.6,421.6,679.5,404.2,646.1z"/>
	<linearGradient id="SVGID_18_" gradientUnits="userSpaceOnUse" x1="398.2201" y1="768.6827" x2="499.2863" y2="768.6827">
		<stop  offset="0" style="stop-color:#FEF0EB"/>
		<stop  offset="0.4988" style="stop-color:#D4E8F2"/>
		<stop  offset="1" style="stop-color:#ADE0F8"/>
	</linearGradient>
	<path class="st17" d="M407.5,771.8c0.6-2.1,1.2-4.2,1.8-6.3C408.7,767.6,408.1,769.7,407.5,771.8z"/>
</g>
<g>
	<linearGradient id="SVGID_19_" gradientUnits="userSpaceOnUse" x1="742.8543" y1="789.6603" x2="834.2272" y2="789.6603">
		<stop  offset="2.810800e-02" style="stop-color:#FDD6BD"/>
		<stop  offset="1" style="stop-color:#F794A4"/>
	</linearGradient>
	<path class="st18" d="M742.9,849.1c21.6-3.8,42.4-14,59.1-30.7c24.2-24.2,34.8-56.7,31.8-88.2c-21.6,21.3-46,38.1-71.9,50.3
		C765,804.4,758.7,829.3,742.9,849.1z"/>
	<linearGradient id="SVGID_20_" gradientUnits="userSpaceOnUse" x1="774.698" y1="598.2321" x2="655.2846" y2="688.9553">
		<stop  offset="2.810800e-02" style="stop-color:#FDD6BD"/>
		<stop  offset="1" style="stop-color:#F794A4"/>
	</linearGradient>
	<path class="st19" d="M645.8,662.3c-16.7,16.7-26.9,37.4-30.7,59.1c19.8-15.9,44.8-22.2,68.7-19c12.2-26,28.9-50.4,50.2-71.9
		C702.5,627.6,670,638.2,645.8,662.3z"/>
	<linearGradient id="SVGID_21_" gradientUnits="userSpaceOnUse" x1="723.6073" y1="744.4867" x2="899.7531" y2="557.3317">
		<stop  offset="2.810800e-02" style="stop-color:#FDD6BD"/>
		<stop  offset="1" style="stop-color:#F794A4"/>
	</linearGradient>
	<path class="st20" d="M903.4,560.8c-4.4-4.4-10.3-6.3-16-5.7c-0.3,0-0.6,0.1-0.9,0.1c-22.9,2.9-45.6,8.8-67.2,17.8
		c-1.6,0.6-3.1,1.3-4.6,2c-28.8,12.6-55.8,30.7-79.3,54.3c-0.4,0.4-0.8,0.8-1.2,1.2c-21.3,21.6-38,45.9-50.2,71.9
		c19.1,2.5,37.5,11.2,52.2,25.8c14.7,14.7,23.3,33.1,25.8,52.2c26-12.2,50.4-29,71.9-50.3c0.4-0.4,0.8-0.8,1.2-1.2
		c23.6-23.6,41.7-50.5,54.3-79.3c0.7-1.5,1.3-3.1,2-4.6c9-21.7,14.9-44.3,17.8-67.2c0.1-0.3,0.1-0.6,0.1-1
		C909.7,571.1,907.8,565.2,903.4,560.8z M835.1,654.9c-14.2,0-25.8-11.5-25.8-25.8c0-14.2,11.5-25.8,25.8-25.8
		c14.2,0,25.8,11.5,25.8,25.8C860.9,643.4,849.3,654.9,835.1,654.9z"/>
	<linearGradient id="SVGID_22_" gradientUnits="userSpaceOnUse" x1="658.2975" y1="805.9421" x2="736.4263" y2="727.8133">
		<stop  offset="2.810800e-02" style="stop-color:#FDD6BD"/>
		<stop  offset="1" style="stop-color:#F794A4"/>
	</linearGradient>
	<path class="st21" d="M683.8,702.4c-4.3,9.1-8,18.4-11.2,27.9c-0.7,2.1-1.4,4.2-2,6.3c-0.6,2.1-1.3,4.2-1.9,6.4
		c-2.4,8.5-4.3,17.2-5.8,25.8c-0.4,2.2-0.7,4.3-1,6.5c-1.4,9.8-2.3,19.7-2.6,29.6c20.9-0.6,41.6-3.8,61.9-9.4
		c4.3-1.2,8.5-2.5,12.7-3.9c9.5-3.2,18.8-6.9,27.9-11.2c-2.5-19.1-11.1-37.6-25.8-52.2C721.3,713.6,702.9,704.9,683.8,702.4z"/>
	<linearGradient id="SVGID_23_" gradientUnits="userSpaceOnUse" x1="576.2426" y1="888.759" x2="900.9317" y2="564.0698">
		<stop  offset="0" style="stop-color:#6958F1"/>
		<stop  offset="1" style="stop-color:#F80980"/>
	</linearGradient>
	<path class="st22" d="M891.3,645c-0.6,1.6-1.3,3.1-2,4.6c-12.6,28.8-30.7,55.8-54.3,79.3c-0.4,0.4-0.8,0.8-1.2,1.2
		c2.9,31.5-7.7,64.1-31.8,88.2c-16.7,16.7-37.4,26.9-59.1,30.7c15.8-19.8,22.2-44.8,19-68.7c-9.1,4.3-18.4,8-27.9,11.2
		c-4.2,1.4-8.4,2.7-12.7,3.9c-20.2,5.6-41,8.8-61.9,9.4c0.3-9.9,1.2-19.7,2.6-29.6c0.3-2.2,0.7-4.4,1-6.5c1.5-8.7,3.4-17.3,5.8-25.8
		c0.6-2.1,1.2-4.3,1.9-6.4c0.7-2.1,1.3-4.2,2-6.3c3.2-9.5,6.9-18.8,11.2-27.9c-23.9-3.2-48.9,3.1-68.7,19
		c3.8-21.6,14-42.4,30.7-59.1c24.2-24.2,56.7-34.8,88.2-31.8c0.4-0.4,0.8-0.8,1.2-1.2c23.6-23.6,50.5-41.7,79.3-54.3
		c1.5-0.7,3.1-1.3,4.6-2c-19.5-10.2-41.2-16.6-64.2-18.5c-106.2-8.6-194.4,83.2-181.6,189c2.1,17.6,7,34.5,14.1,50
		c6.5,14.1,7.6,30,2.8,44.7l-16.9,52.3c0,0.1,0.1,0.2,0.2,0.2l53.1-17.5c13.9-4.6,29-3.6,42.2,2.6c32.3,15.3,70.1,20.6,109.7,12.2
		c63.2-13.6,113.1-62.9,127.2-126C915.4,719.5,908.9,678.9,891.3,645z"/>
</g>
</svg>
